<svg xmlns="http://www.w3.org/2000/svg" width="109.49" height="100.73" viewBox="0 0 109.49 100.73"><defs><style>.a{fill:#2054ec;}</style></defs><path class="a" d="M37.226,2a13.128,13.128,0,0,0-7.733,23.745,17.6,17.6,0,0,0-4.722,3.422,15.078,15.078,0,0,0-5.064-.89A15.335,15.335,0,0,0,11.36,56.471,19.729,19.729,0,0,0,0,74.263v9.854A2.184,2.184,0,0,0,.89,85.9a16.811,16.811,0,0,0,4.516,1.984,50.3,50.3,0,0,0,14.3,1.711,50.3,50.3,0,0,0,14.3-1.711c.385-.111.693-.222,1.026-.342v9.717a2.184,2.184,0,0,0,.89,1.779,16.811,16.811,0,0,0,4.516,1.984,50.3,50.3,0,0,0,14.3,1.711,50.3,50.3,0,0,0,14.3-1.711,16.81,16.81,0,0,0,4.516-1.984,2.184,2.184,0,0,0,.89-1.779V87.538c.334.12.642.231,1.026.342a50.3,50.3,0,0,0,14.3,1.711,50.3,50.3,0,0,0,14.3-1.711A16.81,16.81,0,0,0,108.6,85.9a2.184,2.184,0,0,0,.89-1.779V74.263A19.729,19.729,0,0,0,98.13,56.471a15.335,15.335,0,0,0-8.349-28.193A15.148,15.148,0,0,0,84.375,29.3a17.648,17.648,0,0,0-4.79-3.558,13.139,13.139,0,1,0-15.465,0,17.441,17.441,0,0,0-9.58,13,17.391,17.391,0,0,0-9.58-13A13.128,13.128,0,0,0,37.226,2Zm0,4.38a8.759,8.759,0,1,1-8.759,8.759A8.722,8.722,0,0,1,37.226,6.38Zm34.626,0a8.759,8.759,0,1,1-8.759,8.759A8.722,8.722,0,0,1,71.852,6.38Zm-34.626,21.9A12.981,12.981,0,0,1,50.365,41.416V42.1A15.3,15.3,0,0,0,46.4,69.61a19.9,19.9,0,0,0-6.98,5.543v-.89a19.729,19.729,0,0,0-11.36-17.792,15.3,15.3,0,0,0,.821-25.114A12.624,12.624,0,0,1,37.226,28.277Zm34.626,0a12.627,12.627,0,0,1,8.554,3.216,15.323,15.323,0,0,0,1.026,24.977,19.729,19.729,0,0,0-11.36,17.792v.89a19.9,19.9,0,0,0-6.98-5.543,15.317,15.317,0,0,0-4.38-27.646v-.547A12.981,12.981,0,0,1,71.852,28.277Zm-52.144,4.38A10.949,10.949,0,1,1,8.759,43.606,10.912,10.912,0,0,1,19.708,32.657Zm70.073,0a10.946,10.946,0,1,1-5.543,1.505c.017-.009.051.009.068,0a2.17,2.17,0,0,0,.89-.411c.077-.034.128-.1.205-.137a1.021,1.021,0,0,0,.137-.068A10.792,10.792,0,0,1,89.781,32.657ZM54.745,45.8A10.949,10.949,0,1,1,43.8,56.745,10.915,10.915,0,0,1,54.745,45.8ZM19.708,58.934A15.358,15.358,0,0,1,35.037,74.263V82.68a6.107,6.107,0,0,1-2.258.958,45.734,45.734,0,0,1-13.07,1.574,45.734,45.734,0,0,1-13.07-1.574A6.107,6.107,0,0,1,4.38,82.68V74.263A15.358,15.358,0,0,1,19.708,58.934Zm70.073,0A15.358,15.358,0,0,1,105.11,74.263V82.68a6.107,6.107,0,0,1-2.258.958,45.734,45.734,0,0,1-13.07,1.574,45.734,45.734,0,0,1-13.07-1.574,6.107,6.107,0,0,1-2.258-.958V74.263A15.358,15.358,0,0,1,89.781,58.934ZM54.745,72.073A15.358,15.358,0,0,1,70.073,87.4v8.417a6.107,6.107,0,0,1-2.258.958,45.734,45.734,0,0,1-13.07,1.574,45.734,45.734,0,0,1-13.07-1.574,6.107,6.107,0,0,1-2.258-.958V87.4A15.358,15.358,0,0,1,54.745,72.073Z" transform="translate(0 -2)"/></svg>