<svg xmlns="http://www.w3.org/2000/svg" xmlns:xlink="http://www.w3.org/1999/xlink" width="262" height="187" viewBox="0 0 262 187">
  <defs>
    <linearGradient id="linear-gradient" x1="0.5" y1="1" x2="0.5" gradientUnits="objectBoundingBox">
      <stop offset="0" stop-color="gray" stop-opacity="0.251"/>
      <stop offset="0.54" stop-color="gray" stop-opacity="0.122"/>
      <stop offset="1" stop-color="gray" stop-opacity="0.102"/>
    </linearGradient>
    <linearGradient id="linear-gradient-2" x1="0.63" y1="0.974" x2="0.63" y2="-0.017" xlink:href="#linear-gradient"/>
    <clipPath id="clip-Prancheta_1">
      <rect width="262" height="187"/>
    </clipPath>
  </defs>
  <g id="Prancheta_1" data-name="Prancheta – 1" clip-path="url(#clip-Prancheta_1)">
    <rect width="262" height="187" fill="#fff"/>
    <g id="undraw_electric_car_b7hl" transform="translate(13.002 10.019)">
      <path id="Caminho_67" data-name="Caminho 67" d="M128.816,88.48c-1.281,1.555-1.775,3.741-2.326,5.8-4.442,16.562-15.388,29.884-27.855,39.4-5.279,4.031-11.706,9.436-10.551,16.663.622,3.881,3.35,6.738,5.377,9.9a30.71,30.71,0,0,1,3.605,23.539c-2.305,9.015-8.749,17.427-6.754,26.543,1.23,5.611,5.405,9.6,9.42,13.036q9.394,8.026,19.386,15.038c4.466,3.133,9.216,6.182,14.421,6.579,4.582.351,9.071-1.391,13.422-3.11,3.8-1.5,7.7-3.067,10.769-6.079,2-1.966,3.6-4.5,5.826-6.111,5.228-3.778,11.942-1.384,17.937.234a62.453,62.453,0,0,0,42.743-3.914c20.647-9.7,36.383-30.078,56.579-41.01,8.683-4.7,18.129-7.619,26.169-13.675a48.884,48.884,0,0,0,11.5-12.447,53.844,53.844,0,0,0,8.417-33.038c-.949-11.7-6.268-22.982-14.622-29.589-8.943-7.072-20.237-8.393-30.412-12.639-10.5-4.391-19.849-11.933-30.251-16.635a61.879,61.879,0,0,0-53.378,1.195c-11.327,5.728-22.8,19.092-35.42,20.107C153.832,88.962,135.835,79.965,128.816,88.48Z" transform="translate(-87.95 -61.51)" fill="#9cafa4" opacity="0.1"/>
      <path id="Caminho_68" data-name="Caminho 68" d="M951.688,287.652s-3.4-11.561.638-20.069a18.259,18.259,0,0,0,1.478-11.456,30.707,30.707,0,0,0-1.622-5.377" transform="translate(-748.724 -206.523)" fill="none" stroke="#535461" stroke-miterlimit="10" stroke-width="2"/>
      <path id="Caminho_69" data-name="Caminho 69" d="M952.12,218.71c0,1.417-2.572,5.525-2.572,5.525s-2.572-4.108-2.572-5.525a2.572,2.572,0,1,1,5.129,0Z" transform="translate(-746.136 -179.858)" fill="#6c63ff"/>
      <path id="Caminho_70" data-name="Caminho 70" d="M970.165,248.824c-.769,1.19-5.165,3.245-5.165,3.245s.079-4.842.849-6.032a2.572,2.572,0,0,1,4.307,2.789Z" transform="translate(-759.95 -202.127)" fill="#6c63ff"/>
      <path id="Caminho_71" data-name="Caminho 71" d="M966.379,303.027c-1.265.638-6.079.2-6.079.2s2.513-4.141,3.778-4.779a2.572,2.572,0,0,1,2.31,4.58Z" transform="translate(-756.349 -242.916)" fill="#6c63ff"/>
      <path id="Caminho_72" data-name="Caminho 72" d="M956.369,347.25c-1.139.842-5.969,1.223-5.969,1.223s1.777-4.505,2.918-5.349a2.572,2.572,0,0,1,3.039,4.124Z" transform="translate(-748.764 -277.014)" fill="#6c63ff"/>
      <path id="Caminho_73" data-name="Caminho 73" d="M939,261.492c1.017.987,5.751,2.011,5.751,2.011s-1.169-4.7-2.177-5.691a2.572,2.572,0,1,0-3.575,3.68Z" transform="translate(-739.325 -211.276)" fill="#6c63ff"/>
      <path id="Caminho_74" data-name="Caminho 74" d="M926.388,311.467c1.265.638,6.079.2,6.079.2s-2.513-4.141-3.778-4.779a2.572,2.572,0,0,0-2.31,4.58Z" transform="translate(-729.402 -249.383)" fill="#6c63ff"/>
      <path id="Caminho_75" data-name="Caminho 75" d="M922.1,362.361c1.139.842,5.969,1.223,5.969,1.223s-1.777-4.505-2.918-5.349a2.572,2.572,0,1,0-3.039,4.124Z" transform="translate(-726.139 -288.384)" fill="#6c63ff"/>
      <path id="Caminho_76" data-name="Caminho 76" d="M952.12,218.71c0,1.417-2.572,5.525-2.572,5.525s-2.572-4.108-2.572-5.525a2.572,2.572,0,1,1,5.129,0Z" transform="translate(-746.136 -179.858)" fill="#6c63ff" opacity="0.1"/>
      <path id="Caminho_77" data-name="Caminho 77" d="M970.165,248.824c-.769,1.19-5.165,3.245-5.165,3.245s.079-4.842.849-6.032a2.572,2.572,0,0,1,4.307,2.789Z" transform="translate(-759.95 -202.127)" fill="#6c63ff" opacity="0.1"/>
      <path id="Caminho_78" data-name="Caminho 78" d="M966.379,303.027c-1.265.638-6.079.2-6.079.2s2.513-4.141,3.778-4.779a2.572,2.572,0,0,1,2.31,4.58Z" transform="translate(-756.349 -242.916)" fill="#6c63ff" opacity="0.1"/>
      <path id="Caminho_79" data-name="Caminho 79" d="M956.369,347.25c-1.139.842-5.969,1.223-5.969,1.223s1.777-4.505,2.918-5.349a2.572,2.572,0,0,1,3.039,4.124Z" transform="translate(-748.764 -277.014)" fill="#6c63ff" opacity="0.1"/>
      <path id="Caminho_80" data-name="Caminho 80" d="M939,261.492c1.017.987,5.751,2.011,5.751,2.011s-1.169-4.7-2.177-5.691a2.572,2.572,0,1,0-3.575,3.68Z" transform="translate(-739.325 -211.276)" fill="#6c63ff" opacity="0.1"/>
      <path id="Caminho_81" data-name="Caminho 81" d="M926.388,311.467c1.265.638,6.079.2,6.079.2s-2.513-4.141-3.778-4.779a2.572,2.572,0,0,0-2.31,4.58Z" transform="translate(-729.402 -249.383)" fill="#6c63ff" opacity="0.1"/>
      <path id="Caminho_82" data-name="Caminho 82" d="M922.1,362.361c1.139.842,5.969,1.223,5.969,1.223s-1.777-4.505-2.918-5.349a2.572,2.572,0,1,0-3.039,4.124Z" transform="translate(-726.139 -288.384)" fill="#6c63ff" opacity="0.1"/>
      <path id="Caminho_83" data-name="Caminho 83" d="M1012.688,366.652s-3.4-11.561.638-20.069a18.26,18.26,0,0,0,1.478-11.456,30.715,30.715,0,0,0-1.623-5.377" transform="translate(-795.462 -267.053)" fill="none" stroke="#535461" stroke-miterlimit="10" stroke-width="2"/>
      <path id="Caminho_84" data-name="Caminho 84" d="M1013.12,297.709c0,1.417-2.572,5.525-2.572,5.525s-2.572-4.108-2.572-5.525a2.572,2.572,0,1,1,5.129,0Z" transform="translate(-792.874 -240.388)" fill="#6c63ff"/>
      <path id="Caminho_85" data-name="Caminho 85" d="M1031.2,326.825c-.769,1.19-5.155,3.243-5.155,3.243s.079-4.842.849-6.032a2.572,2.572,0,1,1,4.307,2.789Z" transform="translate(-806.719 -261.658)" fill="#6c63ff"/>
      <path id="Caminho_86" data-name="Caminho 86" d="M1027.379,381.47c-1.265.638-6.079.2-6.079.2s2.513-4.141,3.778-4.779a2.572,2.572,0,1,1,2.31,4.58Z" transform="translate(-803.088 -302.889)" fill="#6c63ff"/>
      <path id="Caminho_87" data-name="Caminho 87" d="M1017.369,426.25c-1.139.842-5.969,1.223-5.969,1.223s1.777-4.505,2.918-5.349a2.572,2.572,0,0,1,3.039,4.124Z" transform="translate(-795.502 -337.544)" fill="#6c63ff"/>
      <path id="Caminho_88" data-name="Caminho 88" d="M1000.861,341.331c1.017.987,5.751,2.011,5.751,2.011s-1.169-4.7-2.177-5.691a2.572,2.572,0,0,0-3.575,3.68Z" transform="translate(-786.927 -272.645)" fill="#6c63ff"/>
      <path id="Caminho_89" data-name="Caminho 89" d="M987.388,390.467c1.265.638,6.079.2,6.079.2s-2.513-4.141-3.778-4.779a2.572,2.572,0,0,0-2.31,4.58Z" transform="translate(-776.141 -309.913)" fill="#6c63ff"/>
      <path id="Caminho_90" data-name="Caminho 90" d="M983.1,441.361c1.139.842,5.969,1.223,5.969,1.223s-1.777-4.505-2.918-5.349a2.572,2.572,0,1,0-3.039,4.124Z" transform="translate(-772.878 -348.914)" fill="#6c63ff"/>
      <path id="Caminho_91" data-name="Caminho 91" d="M1013.12,297.709c0,1.417-2.572,5.525-2.572,5.525s-2.572-4.108-2.572-5.525a2.572,2.572,0,1,1,5.129,0Z" transform="translate(-792.874 -240.388)" fill="#6c63ff" opacity="0.1"/>
      <path id="Caminho_92" data-name="Caminho 92" d="M1031.2,326.825c-.769,1.19-5.155,3.243-5.155,3.243s.079-4.842.849-6.032a2.572,2.572,0,1,1,4.307,2.789Z" transform="translate(-806.719 -261.658)" fill="#6c63ff" opacity="0.1"/>
      <path id="Caminho_93" data-name="Caminho 93" d="M1027.379,381.47c-1.265.638-6.079.2-6.079.2s2.513-4.141,3.778-4.779a2.572,2.572,0,1,1,2.31,4.58Z" transform="translate(-803.088 -302.889)" fill="#6c63ff" opacity="0.1"/>
      <path id="Caminho_94" data-name="Caminho 94" d="M1017.369,426.25c-1.139.842-5.969,1.223-5.969,1.223s1.777-4.505,2.918-5.349a2.572,2.572,0,0,1,3.039,4.124Z" transform="translate(-795.502 -337.544)" fill="#6c63ff" opacity="0.1"/>
      <path id="Caminho_95" data-name="Caminho 95" d="M1000.861,341.331c1.017.987,5.751,2.011,5.751,2.011s-1.169-4.7-2.177-5.691a2.572,2.572,0,0,0-3.575,3.68Z" transform="translate(-786.927 -272.645)" fill="#6c63ff" opacity="0.1"/>
      <path id="Caminho_96" data-name="Caminho 96" d="M987.388,390.467c1.265.638,6.079.2,6.079.2s-2.513-4.141-3.778-4.779a2.572,2.572,0,0,0-2.31,4.58Z" transform="translate(-776.141 -309.913)" fill="#6c63ff" opacity="0.1"/>
      <path id="Caminho_97" data-name="Caminho 97" d="M983.1,441.361c1.139.842,5.969,1.223,5.969,1.223s-1.777-4.505-2.918-5.349a2.572,2.572,0,1,0-3.039,4.124Z" transform="translate(-772.878 -348.914)" fill="#6c63ff" opacity="0.1"/>
      <ellipse id="Elipse_12" data-name="Elipse 12" cx="115.528" cy="18.596" rx="115.528" ry="18.596" transform="matrix(0.995, -0.097, 0.097, 0.995, 7.642, 112.45)" fill="#6c63ff" opacity="0.1"/>
      <path id="Caminho_98" data-name="Caminho 98" d="M330.94,357.379c4.323-8.861,3.43-23.284,2.969-28.18-.1-1.071-.18-1.686-.18-1.686s-3.811-.6-2.406-5.214c.687-2.258-1.753-3.507-4.419-4.192a31.12,31.12,0,0,0-5.807-.821l-36.914-2.28h0c-5.062-8.033-15.021-6.743-15.021-6.743s-8.884-.924-15.183-1.019a16.955,16.955,0,0,0-3.124-2.181,10.284,10.284,0,0,0-2.118-.966,6,6,0,0,0-5.3.994,2.82,2.82,0,0,0-.863,1,2.746,2.746,0,0,0-.175.563,10.07,10.07,0,0,0-.234,1,1.727,1.727,0,0,1-.234.456c-.253.358-.687.627-.743,1.059a.694.694,0,0,0,0,.075.786.786,0,0,0-.091.267.961.961,0,0,0,.119.554.874.874,0,0,0,.047.079,6.6,6.6,0,0,0-.755,1.45,2.416,2.416,0,0,0-.25.157l-.07.051v.143l-.04.03-.087,2.3.049.037a6.818,6.818,0,0,0,3.17,5.321c.03.147.058.3.086.454a12.354,12.354,0,0,1,.173,2.286h-.04c-1.1-.468-2.979.22-4.594,1.022H217.974a65.589,65.589,0,0,1,9.076-9.324v-4.615c-3.568-.178-34.911,14.879-41.782,18.2l-.3.147-35.315,1.094a54.42,54.42,0,0,0-16.833,2.431,47.9,47.9,0,0,0-21.079,13.467,39.374,39.374,0,0,0-6,8.361l.04.318-.04.082.056.049.952,7.51.655,5.167c-4.55,2.941,1.344,4.12,1.344,4.12,5.611,4.812,14.638,4.613,14.638,4.613,2.2,3.009,8.622,2.607,8.622,2.607h33.688a81.626,81.626,0,0,1,2.1-9.165c1.438,10.355,9.609,18.288,19.471,18.288a18.213,18.213,0,0,0,2.188-.133,18.2,18.2,0,0,0,2.188.133c9.976,0,18.22-8.12,19.517-18.648h1.648a36.744,36.744,0,0,1-1.6,6.918c30.279-8.823,86.626-13.034,86.626-13.034q.351-3.332.769-6.427c2.322,5.763,7.584,9.787,13.71,9.787a13.834,13.834,0,0,0,1.665-.1,13.834,13.834,0,0,0,1.665.1c7.273,0,13.326-5.674,14.692-13.2a34.387,34.387,0,0,1,.309,4c-.259,1.277-.486,2.092-.517,2.207q.274-.5.519-1.024v.416c-.056.234-.1.365-.108.409l.1-.192v.306A9.153,9.153,0,0,1,330.94,357.379Z" transform="translate(-101.533 -247.219)" fill="url(#linear-gradient)"/>
      <rect id="Retângulo_24" data-name="Retângulo 24" width="69.414" height="28.002" transform="translate(156.46 78.321)" fill="#6f7d95"/>
      <path id="Caminho_99" data-name="Caminho 99" d="M593.73,276.39l9.859,22.087,19.524-1.183.788-9.071.592-10.649L596.886,275.6Z" transform="translate(-454.92 -211.183)" fill="#4b5c7a"/>
      <path id="Caminho_100" data-name="Caminho 100" d="M681.68,325.543a18.472,18.472,0,0,1,8.283-4.339c4.543-.79,19.721.788,19.721.788l2.17,3.741-.407,1.782Z" transform="translate(-542.87 -260.336)" fill="#ff4d52"/>
      <rect id="Retângulo_25" data-name="Retângulo 25" width="70.006" height="20.509" transform="translate(105.976 76.547)" fill="#4b5c7a"/>
      <path id="Caminho_101" data-name="Caminho 101" d="M648.637,339.955a11.03,11.03,0,0,0-1.838-10.247l-6.112-4.264a.278.278,0,0,1-.019.042,7.949,7.949,0,0,1-1.662-3.222c-.019-.075-.035-.152-.054-.234a6.581,6.581,0,0,0,1.45-1.485,3.582,3.582,0,0,0,1.609-2.572,12.831,12.831,0,0,0,1.517-3.07,5.448,5.448,0,0,0,.154-.535,2.806,2.806,0,0,0,.154-1.05,2.871,2.871,0,0,0-.388-1.122,11.789,11.789,0,0,0-4.758-4.234,10.119,10.119,0,0,0-2.083-.949,5.9,5.9,0,0,0-5.214.977,2.772,2.772,0,0,0-.849.987,2.706,2.706,0,0,0-.173.554,9.912,9.912,0,0,0-.222.987,1.7,1.7,0,0,1-.22.447c-.25.351-.676.615-.732,1.043a.665.665,0,0,0,0,.075.771.771,0,0,0-.089.262.935.935,0,0,0,.117.545.883.883,0,0,0,.047.079,6.489,6.489,0,0,0-.744,1.426,2.385,2.385,0,0,0-.248.154l-.068.049v.14l-.04.03-.087,2.265.047.037a6.7,6.7,0,0,0,3.117,5.235c.03.145.058.292.084.447a12,12,0,0,1,.168,2.471.846.846,0,0,1,0-.215c-1.69-.764-5.377,1.349-6.862,2.284h0a2.815,2.815,0,0,0-.624.4l-.026.019h0c-1.022.828-3.039,3.128-4.641,9.041-2.221,8.251-1.99,10.121-3.607,12.034s-3.224,15.386-3.224,15.386l3.257.877.416-1.337c3.872,3.53,14.713,5.23,14.713,5.23l.332-1.031c1.662.6,4.442-.311,4.442-.311,4.063-1.435,5.585-5.078,8.534-9.883S648.637,339.955,648.637,339.955Zm-16.389,24.86,7.5-23.279c.68,3.615-2.322,9.307-2.588,13.03C637,356.959,634.212,361.717,632.248,364.814Z" transform="translate(-489.879 -249.455)" fill="url(#linear-gradient-2)"/>
      <path id="Caminho_102" data-name="Caminho 102" d="M721.588,343.777s1.307,4.978-2.572,5.845-1.323-2.237-1.323-2.237l3.741-3.645Z" transform="translate(-569.83 -277.773)" fill="#472727"/>
      <path id="Caminho_103" data-name="Caminho 103" d="M629.9,394.64s-2.885,1.169-5.006,9.043-1.91,9.651-3.437,11.482-3.091,14.675-3.091,14.675l3.053.823,2.658-8.585,7.311-22.678Z" transform="translate(-494.361 -316.772)" fill="#dde0e4"/>
      <path id="Caminho_104" data-name="Caminho 104" d="M629.9,394.64s-2.885,1.169-5.006,9.043-1.91,9.651-3.437,11.482-3.091,14.675-3.091,14.675l3.053.823,2.658-8.585,7.311-22.678Z" transform="translate(-494.361 -316.772)" opacity="0.05"/>
      <path id="Caminho_105" data-name="Caminho 105" d="M701.851,359.81s-12.078,6.139-10.31,2.135a9.965,9.965,0,0,0,.587-5.611,11.989,11.989,0,0,0-.76-2.717s8.211-6.495,7.729-1.192a10.145,10.145,0,0,0,.234,3.409A6.838,6.838,0,0,0,701.851,359.81Z" transform="translate(-550.29 -282.831)" fill="#db8b8b"/>
      <path id="Caminho_106" data-name="Caminho 106" d="M699.313,355.85a6.312,6.312,0,0,1-5.611,1.169,6.385,6.385,0,0,1-1.6-.676,11.98,11.98,0,0,0-.76-2.717s8.211-6.495,7.729-1.192A10.145,10.145,0,0,0,699.313,355.85Z" transform="translate(-550.271 -282.838)" opacity="0.1"/>
      <circle id="Elipse_13" data-name="Elipse 13" cx="6.322" cy="6.322" r="6.322" transform="translate(137.422 72.223) rotate(-74.93)" fill="#db8b8b"/>
      <path id="Caminho_107" data-name="Caminho 107" d="M688.039,318.348a1.508,1.508,0,0,1-2.1-.554.907.907,0,0,1-.108-.519c.054-.407.456-.659.7-1,.381-.545.309-1.291.584-1.9a2.665,2.665,0,0,1,.8-.935,5.5,5.5,0,0,1,4.9-.954,9.34,9.34,0,0,1,1.95.9A10.878,10.878,0,0,1,699.2,317.4a2.742,2.742,0,0,1,.36,1.068,3.04,3.04,0,0,1-.21,1.192,12.428,12.428,0,0,1-1.457,2.962,2.283,2.283,0,0,0-.758-.61.781.781,0,0,0-.9.166c-.2.26-.327.755-.636.638-.2-.075-.2-.353-.189-.568a3.247,3.247,0,0,0-1.153-2.448,9.653,9.653,0,0,0-2.371-1.457,9.977,9.977,0,0,0-2.062-1.089C689.012,317.107,688.626,317.986,688.039,318.348Z" transform="translate(-546.044 -253.669)" opacity="0.1"/>
      <path id="Caminho_108" data-name="Caminho 108" d="M688.409,316.978a1.508,1.508,0,0,1-2.1-.554.907.907,0,0,1-.107-.519c.054-.407.456-.659.7-1,.381-.545.309-1.291.584-1.9a2.666,2.666,0,0,1,.8-.935,5.5,5.5,0,0,1,4.9-.954,9.34,9.34,0,0,1,1.95.9,10.876,10.876,0,0,1,4.442,4.014,2.741,2.741,0,0,1,.36,1.068,3.041,3.041,0,0,1-.21,1.192,12.431,12.431,0,0,1-1.456,2.962,2.282,2.282,0,0,0-.758-.61.781.781,0,0,0-.9.166c-.2.26-.327.755-.636.638-.2-.075-.2-.353-.189-.568a3.247,3.247,0,0,0-1.153-2.448,9.653,9.653,0,0,0-2.371-1.457,9.977,9.977,0,0,0-2.062-1.09C689.382,315.735,689,316.616,688.409,316.978Z" transform="translate(-546.328 -252.62)" fill="#472727"/>
      <path id="Caminho_109" data-name="Caminho 109" d="M647.323,386.911s5-.98,5.218-1.782l5.719,4.038a10.57,10.57,0,0,1,1.681,9.756s-1.433,12.366-4.22,16.955-4.388,10.535-8.206,11.924c0,0-3.671-2.366-4.882-2.338,0,0,6.217-9.008,6.483-12.555s3.107-8.985,2.485-12.426l-8.417,26.162s-13.56-2.1-14.935-6.6a6.032,6.032,0,0,0,.952-3.535c-.217-1.779,5.115-15.164,5.115-15.164l2.553-13.958s5.05-3.528,7.061-2.611C643.921,384.758,643.557,386.5,647.323,386.911Z" transform="translate(-501.931 -309.095)" fill="#dde0e4"/>
      <g id="Agrupar_5" data-name="Agrupar 5" transform="translate(138.806 65.46)" opacity="0.1">
        <path id="Caminho_110" data-name="Caminho 110" d="M690.067,343.072h0c-1.234-1.683-3.589-.3-3.974-.061l-.606-.061c-.528-.575-2.149-2.1-3.671-.98l-.065.049-.091,2.158.065.051a4.508,4.508,0,0,0,1.471.753,2.219,2.219,0,0,0,1.038.051,1.791,1.791,0,0,0,1.195-.935l.316.021.234-.044a1.779,1.779,0,0,0,.842,1.2,3.646,3.646,0,0,0,2.635-.012l.079-.03.561-2.088Zm-.793,1.9a3.126,3.126,0,0,1-2.272,0,1.51,1.51,0,0,1-.7-1.136l-.028-.171-.512.105-.514-.019-.049.1a1.517,1.517,0,0,1-1.026.86,3.158,3.158,0,0,1-2.167-.687l.077-1.824c1.323-.891,2.782.554,3.2,1.026l.044.049.853.084.051-.035c.023-.014,2.144-1.438,3.353-.292a1.566,1.566,0,0,1,.166.18Z" transform="translate(-681.66 -341.569)"/>
        <path id="Caminho_111" data-name="Caminho 111" d="M719.84,348.955l-3.974-.33-.327-.063.147-.552a1.566,1.566,0,0,0-.166-.18l.482.047,3.252.318Z" transform="translate(-707.604 -346.366)"/>
      </g>
      <path id="Caminho_112" data-name="Caminho 112" d="M690.247,342.432h0c-1.234-1.683-3.589-.3-3.975-.061l-.606-.061c-.528-.575-2.148-2.1-3.671-.98l-.065.049-.091,2.158.065.051a4.509,4.509,0,0,0,1.471.753,2.218,2.218,0,0,0,1.038.051,1.791,1.791,0,0,0,1.195-.935l.316.021.234-.044a1.778,1.778,0,0,0,.842,1.2,3.646,3.646,0,0,0,2.635-.012l.079-.03.561-2.088Zm-.793,1.9a3.126,3.126,0,0,1-2.272,0,1.51,1.51,0,0,1-.7-1.136l-.028-.171-.512.105-.507-.033-.049.1a1.517,1.517,0,0,1-1.022.87,3.159,3.159,0,0,1-2.167-.687l.077-1.824c1.323-.891,2.782.554,3.2,1.026l.044.049.853.084.051-.035c.023-.014,2.144-1.438,3.353-.292a1.572,1.572,0,0,1,.166.18Z" transform="translate(-542.992 -275.619)" fill="#472727"/>
      <path id="Caminho_113" data-name="Caminho 113" d="M720.046,348.315l-3.96-.33-.327-.063.147-.552a1.571,1.571,0,0,0-.166-.18l.482.047,3.252.318Z" transform="translate(-568.966 -280.416)" fill="#472727"/>
      <rect id="Retângulo_26" data-name="Retângulo 26" width="69.414" height="28.002" transform="translate(54.506 92.52)" fill="#6f7d95"/>
      <ellipse id="Elipse_14" data-name="Elipse 14" cx="19.37" cy="21.198" rx="19.37" ry="21.198" transform="translate(66.904 96.464)" fill="#4b5c7a"/>
      <ellipse id="Elipse_15" data-name="Elipse 15" cx="19.37" cy="21.198" rx="19.37" ry="21.198" transform="translate(66.904 96.464)" opacity="0.05"/>
      <ellipse id="Elipse_16" data-name="Elipse 16" cx="19.37" cy="21.198" rx="19.37" ry="21.198" transform="translate(71.208 96.464)" fill="#4b5c7a"/>
      <circle id="Elipse_17" data-name="Elipse 17" cx="8.608" cy="8.608" r="8.608" transform="translate(81.54 109.161)" opacity="0.05"/>
      <circle id="Elipse_18" data-name="Elipse 18" cx="2.583" cy="2.583" r="2.583" transform="translate(87.565 115.186)" fill="none" stroke="#6f7d95" stroke-miterlimit="10" stroke-width="2"/>
      <circle id="Elipse_19" data-name="Elipse 19" cx="0.645" cy="0.645" r="0.645" transform="translate(89.503 112.605)" fill="#6f7d95"/>
      <circle id="Elipse_20" data-name="Elipse 20" cx="0.645" cy="0.645" r="0.645" transform="matrix(0.766, -0.643, 0.643, 0.766, 92.77, 114.416)" fill="#6f7d95"/>
      <circle id="Elipse_21" data-name="Elipse 21" cx="0.645" cy="0.645" r="0.645" transform="translate(94.252 118.527) rotate(-80)" fill="#6f7d95"/>
      <circle id="Elipse_22" data-name="Elipse 22" cx="0.645" cy="0.645" r="0.645" transform="translate(92.273 121.032) rotate(-30)" fill="#6f7d95"/>
      <circle id="Elipse_23" data-name="Elipse 23" cx="0.645" cy="0.645" r="0.645" transform="matrix(0.342, -0.94, 0.94, 0.342, 88.646, 122.341)" fill="#6f7d95"/>
      <circle id="Elipse_24" data-name="Elipse 24" cx="0.645" cy="0.645" r="0.645" transform="matrix(0.94, -0.342, 0.342, 0.94, 85.751, 119.191)" fill="#6f7d95"/>
      <circle id="Elipse_25" data-name="Elipse 25" cx="0.645" cy="0.645" r="0.645" transform="translate(85.661 116.065) rotate(-60)" fill="#6f7d95"/>
      <path id="Caminho_114" data-name="Caminho 114" d="M1012.7,431.813a55.748,55.748,0,0,1-2.5,9.569q.019-.468.023-.924V439.29A31.779,31.779,0,0,0,998.7,415.209,24.873,24.873,0,0,0,995,412.6h12.029s4.732,9.663,5.719,14.395A14.423,14.423,0,0,1,1012.7,431.813Z" transform="translate(-782.936 -330.533)" fill="#ff4d52"/>
      <path id="Caminho_115" data-name="Caminho 115" d="M1012.7,431.813a55.748,55.748,0,0,1-2.5,9.569q.019-.468.023-.924V439.29A31.779,31.779,0,0,0,998.7,415.209,24.873,24.873,0,0,0,995,412.6h12.029s4.732,9.663,5.719,14.395A14.423,14.423,0,0,1,1012.7,431.813Z" transform="translate(-782.936 -330.533)" opacity="0.05"/>
      <ellipse id="Elipse_26" data-name="Elipse 26" cx="14.732" cy="16.123" rx="14.732" ry="16.123" transform="translate(194.52 85.566)" fill="#4b5c7a"/>
      <ellipse id="Elipse_27" data-name="Elipse 27" cx="14.732" cy="16.123" rx="14.732" ry="16.123" transform="translate(194.52 85.566)" opacity="0.05"/>
      <ellipse id="Elipse_28" data-name="Elipse 28" cx="14.732" cy="16.123" rx="14.732" ry="16.123" transform="translate(197.793 85.566)" fill="#4b5c7a"/>
      <circle id="Elipse_29" data-name="Elipse 29" cx="6.546" cy="6.546" r="6.546" transform="translate(205.651 95.225)" opacity="0.05"/>
      <circle id="Elipse_30" data-name="Elipse 30" cx="1.964" cy="1.964" r="1.964" transform="translate(210.233 99.807)" fill="none" stroke="#6f7d95" stroke-miterlimit="10" stroke-width="2"/>
      <circle id="Elipse_31" data-name="Elipse 31" cx="0.491" cy="0.491" r="0.491" transform="translate(211.706 97.843)" fill="#6f7d95"/>
      <circle id="Elipse_32" data-name="Elipse 32" cx="0.491" cy="0.491" r="0.491" transform="matrix(0.766, -0.643, 0.643, 0.766, 214.191, 99.22)" fill="#6f7d95"/>
      <circle id="Elipse_33" data-name="Elipse 33" cx="0.491" cy="0.491" r="0.491" transform="translate(215.318 102.349) rotate(-80)" fill="#6f7d95"/>
      <circle id="Elipse_34" data-name="Elipse 34" cx="0.491" cy="0.491" r="0.491" transform="translate(213.816 104.254) rotate(-30)" fill="#6f7d95"/>
      <circle id="Elipse_35" data-name="Elipse 35" cx="0.491" cy="0.491" r="0.491" transform="matrix(0.342, -0.94, 0.94, 0.342, 211.055, 105.249)" fill="#6f7d95"/>
      <circle id="Elipse_36" data-name="Elipse 36" cx="0.491" cy="0.491" r="0.491" transform="matrix(0.94, -0.342, 0.342, 0.94, 208.853, 102.85)" fill="#6f7d95"/>
      <circle id="Elipse_37" data-name="Elipse 37" cx="0.491" cy="0.491" r="0.491" transform="translate(208.787 100.473) rotate(-60)" fill="#6f7d95"/>
      <path id="Caminho_116" data-name="Caminho 116" d="M115.782,528.242l-1.782-14h21.1l10.846,9.663-5.324,12.424S119.144,532.778,115.782,528.242Z" transform="translate(-107.911 -408.41)" fill="#ff4d52"/>
      <path id="Caminho_117" data-name="Caminho 117" d="M145.991,523.911l-5.324,12.424s-21.486-3.549-24.848-8.085l-.077-.61-1.637-12.948-.016-.129-.04-.313h21.1Z" transform="translate(-107.95 -408.418)" opacity="0.05"/>
      <path id="Caminho_118" data-name="Caminho 118" d="M485.394,330.365V334.9s-10.9,8.884-13.5,17.266a10.563,10.563,0,0,0-.5,4.229c.987,9.268-28.392-7.5-28.392-7.5l1.307-.636C451.061,345.008,481.885,330.187,485.394,330.365Z" transform="translate(-359.992 -267.523)" fill="#7597ce"/>
      <path id="Caminho_119" data-name="Caminho 119" d="M729.959,356.67s10.212-5.017,11.851-8.73c.22-.5.428-1,.671-1.489,1.012-2.036,3.14-6.813,2.069-9.106-1.379-2.957,3.353.4,3.353.4l-2.761,14-6.705,3.741-8.676,1.192" transform="translate(-579.709 -271.938)" fill="#ff4d52"/>
      <path id="Caminho_120" data-name="Caminho 120" d="M729.959,356.67s10.212-5.017,11.851-8.73c.22-.5.428-1,.671-1.489,1.012-2.036,3.14-6.813,2.069-9.106-1.379-2.957,3.353.4,3.353.4l-2.761,14-6.705,3.741-8.676,1.192" transform="translate(-579.709 -271.938)" opacity="0.05"/>
      <path id="Caminho_121" data-name="Caminho 121" d="M145.968,523.918l-5.324,12.424s-21.486-3.549-24.848-8.085l-.077-.61c.087-.058.178-.119.274-.178,0,0,6.507,5.127,21.3,6.313,0,0,8.884-7.1-5.522-14.986,0,0-12.532.393-17.694-4.094l-.056-.047.04-.082q.051-.1.166-.313H135.12Z" transform="translate(-107.927 -408.426)" opacity="0.05"/>
      <path id="Caminho_122" data-name="Caminho 122" d="M471.392,415.059c.987,9.27-28.392-7.493-28.392-7.493l1.307-.636c.865.921,4.318,4.028,11.222,3.692,4.442-.217,11.187-.019,16.377.208A10.563,10.563,0,0,0,471.392,415.059Z" transform="translate(-359.992 -326.189)" opacity="0.05"/>
      <path id="Caminho_123" data-name="Caminho 123" d="M390.514,457.31v28h-12.9c.851-6.514.36-16.008-7.912-21.451a20.008,20.008,0,0,0-20.878-.622c-5.422,3.1-11.484,9.389-15.337,22.073H321.1v-28Z" transform="translate(-266.592 -364.79)" opacity="0.05"/>
      <path id="Caminho_124" data-name="Caminho 124" d="M1012.7,431.813a32.212,32.212,0,0,1-2.476,8.65q-.234.517-.51,1.008c.031-.115.253-.914.51-2.172,1.253-6.125,3.4-23.076-10.967-24.044-.187-.012-.372-.023-.557-.03A24.871,24.871,0,0,0,995,412.6h12.029s4.732,9.663,5.719,14.395A14.423,14.423,0,0,1,1012.7,431.813Z" transform="translate(-782.936 -330.533)" opacity="0.05"/>
      <path id="Caminho_125" data-name="Caminho 125" d="M334.9,393.132c.187-.676,6.85-25.047-10.458-26.213-17.551-1.183-19.721,12.029-21.692,29.975,0,0-55.41,4.141-85.191,12.819,0,0,7.15-19.592-6.313-28.453a20.008,20.008,0,0,0-20.878-.622c-6.64,3.792-14.245,12.391-17.572,31.637H139.664s-6.313.4-8.48-2.572c0,0-8.884.2-14.395-4.536,0,0-5.915-1.183-1.183-4.141,0,0,6.705,5.127,21.5,6.313,0,0,8.884-7.1-5.522-14.986,0,0-12.625.4-17.748-4.141a38.682,38.682,0,0,1,5.9-8.22,47.11,47.11,0,0,1,20.721-13.249,53.666,53.666,0,0,1,16.564-2.389l34.805-1.085s3.362,4.339,11.437,3.944,23.861.592,23.861.592h.157l32.479-1.471a20.664,20.664,0,0,0,2.761-.584c4.709-1.279,13.64-5.158,12.029-15.989l51.075,3.156a30.607,30.607,0,0,1,5.712.807c2.623.673,5.022,1.9,4.346,4.124-1.379,4.536,2.366,5.127,2.366,5.127s.079.606.178,1.658C338.693,369.593,339.612,384.509,334.9,393.132Z" transform="translate(-107.736 -282.385)" fill="#ff4d52"/>
      <path id="Caminho_126" data-name="Caminho 126" d="M275.833,442.55s-21.3.2-35.3,12.625h7.888s22.087-5.719,27.41-10.254Z" transform="translate(-204.859 -353.481)" opacity="0.05"/>
      <path id="Caminho_127" data-name="Caminho 127" d="M274.983,441.7s-21.3.2-35.3,12.625h7.888s22.087-5.719,27.41-10.254Z" transform="translate(-204.208 -352.83)" fill="#ffec9f"/>
      <path id="Caminho_128" data-name="Caminho 128" d="M160.839,423.25v5.3L142.9,436.834l-2.778-.334a47.11,47.11,0,0,1,20.719-13.249Z" transform="translate(-127.924 -338.693)" opacity="0.05"/>
      <path id="Caminho_129" data-name="Caminho 129" d="M159.981,422.41v5.3l-17.944,8.281-2.777-.334a47.11,47.11,0,0,1,20.721-13.247Z" transform="translate(-127.265 -338.05)" fill="#ffec9f"/>
      <path id="Caminho_130" data-name="Caminho 130" d="M301.8,525.21a25.164,25.164,0,0,0-10.649,18.938h5.522s2.17-14.2,8.48-18.938Z" transform="translate(-243.644 -416.816)" fill="none"/>
      <path id="Caminho_131" data-name="Caminho 131" d="M301.8,525.21a25.164,25.164,0,0,0-10.649,18.938h5.522s2.17-14.2,8.48-18.938Z" transform="translate(-243.644 -416.816)" opacity="0.05"/>
      <path id="Caminho_132" data-name="Caminho 132" d="M651.824,430.6l-50.091,5.915s-3.313-21.088-2.7-29.292l32.479-1.471a20.67,20.67,0,0,0,2.759-.577v1.957l24.453-5.915S662.866,407.331,651.824,430.6Z" transform="translate(-479.487 -321.814)" fill="none"/>
      <path id="Caminho_133" data-name="Caminho 133" d="M651.824,430.6l-50.091,5.915s-3.313-21.088-2.7-29.292l32.479-1.471a20.67,20.67,0,0,0,2.759-.577v1.957l24.453-5.915S662.866,407.331,651.824,430.6Z" transform="translate(-479.487 -321.814)" opacity="0.05"/>
      <path id="Caminho_134" data-name="Caminho 134" d="M801.46,325.054s10.649-1.379,15.382,7.692l-15.23-.587Z" transform="translate(-634.645 -263.398)" fill="#ff4d52"/>
      <path id="Caminho_135" data-name="Caminho 135" d="M863.58,363.3c-.419,1.312-.1,2.754,2.322,3.752a3.793,3.793,0,0,0,5.073-2.2c.4-1.206.126-2.572-2.048-3.682A3.682,3.682,0,0,0,863.58,363.3Z" transform="translate(-682.123 -290.771)" fill="none"/>
      <path id="Caminho_136" data-name="Caminho 136" d="M863.58,363.3c-.419,1.312-.1,2.754,2.322,3.752a3.793,3.793,0,0,0,5.073-2.2c.4-1.206.126-2.572-2.048-3.682A3.682,3.682,0,0,0,863.58,363.3Z" transform="translate(-682.123 -290.771)" opacity="0.05"/>
      <path id="Caminho_137" data-name="Caminho 137" d="M115.63,526.88s12.639,6.546,21.71,4.068" transform="translate(-109.16 -418.095)" fill="none" stroke="#ff4d52" stroke-miterlimit="10" stroke-width="1"/>
      <path id="Caminho_138" data-name="Caminho 138" d="M117.54,542s8.167,6.3,24.673,4.835" transform="translate(-110.624 -429.68)" fill="none" stroke="#ff4d52" stroke-miterlimit="10" stroke-width="1"/>
      <path id="Caminho_139" data-name="Caminho 139" d="M119.15,554.69s8.1,7.03,24.747,4.8" transform="translate(-111.857 -439.403)" fill="none" stroke="#ff4d52" stroke-miterlimit="10" stroke-width="1"/>
      <path id="Caminho_140" data-name="Caminho 140" d="M823.342,353.67s-6.588,5.688-12.6,8.26C810.74,361.93,819.872,363.555,823.342,353.67Z" transform="translate(-641.756 -285.381)" opacity="0.05"/>
      <path id="Caminho_141" data-name="Caminho 141" d="M566.1,421.748s31.263,2.953,43.093.192c0,0,.631.418-3.135-1.269Z" transform="translate(-454.312 -336.717)" opacity="0.1"/>
      <path id="Caminho_142" data-name="Caminho 142" d="M1051.24,377.611c-1.948-1.279-5.036-3.932-4.615-6.885.21-1.48-.837-2.864-2.275-4.026,2.623.673,5.022,1.9,4.346,4.124-1.379,4.536,2.366,5.127,2.366,5.127S1051.14,376.559,1051.24,377.611Z" transform="translate(-820.749 -295.365)" opacity="0.05"/>
      <g id="TESLA" transform="translate(50.62 88.971)">
        <g id="g8" transform="translate(12.674 0.002)">
          <path id="polyline10" d="M270.96,383.91v1.171h.376V384.3H272.7v.781h.376v-1.169l-2.121,0" transform="translate(-270.906 -383.143)" fill="#e82127"/>
          <path id="path12" d="M359.07,442.528h1.445a.533.533,0,0,0,.393-.388H358.68a.535.535,0,0,0,.393.388" transform="translate(-358.68 -442.14)" fill="#e82127"/>
        </g>
        <g id="g14" transform="translate(9.857 0.002)">
          <path id="path16" d="M348.365,444.078a.537.537,0,0,0,.33-.381h-1.686V442.14h-.379v1.938h1.732" transform="translate(-346.63 -442.14)" fill="#e82127"/>
        </g>
        <g id="g18" transform="translate(6.56 0.002)">
          <path id="path20" d="M333.021,442.521h1.335a.584.584,0,0,0,.411-.381H332.64v1.136h1.735v.4h-1.361a.76.76,0,0,0-.484.393h2.214V442.9h-1.732v-.383" transform="translate(-332.53 -442.14)" fill="#e82127"/>
        </g>
        <g id="g22" transform="translate(3.367)">
          <path id="path24" d="M319.26,442.518h1.445a.533.533,0,0,0,.393-.388H318.87a.535.535,0,0,0,.393.388" transform="translate(-318.87 -442.13)" fill="#e82127"/>
          <path id="path26" d="M319.26,445.788h1.445a.531.531,0,0,0,.393-.388H318.87a.535.535,0,0,0,.393.388" transform="translate(-318.87 -444.635)" fill="#e82127"/>
          <path id="path28" d="M319.26,449.158h1.445a.533.533,0,0,0,.393-.388H318.87a.535.535,0,0,0,.393.388" transform="translate(-318.87 -447.218)" fill="#e82127"/>
        </g>
        <g id="g30" transform="translate(0 0.005)">
          <path id="path32" d="M304.47,442.15a.54.54,0,0,0,.39.386h.608l.03.012v1.534h.379v-1.534l.035-.012h.608a.547.547,0,0,0,.39-.386H304.47" transform="translate(-304.47 -442.15)" fill="#e82127"/>
        </g>
      </g>
      <path id="Caminho_154" data-name="Caminho 154" d="M380.136,487.633c-.982.935-5.052-.935-4.772-2.048.2-.788.884-3.607,1.274-5.207l.271-1.125s2.385-.746,3.226,0a5.309,5.309,0,0,1,.622,2.63C380.931,484.126,380.761,487.041,380.136,487.633Z" transform="translate(-308.159 -381.35)" fill="#fdc2cc"/>
      <path id="Caminho_160" data-name="Caminho 160" d="M384.98,481.884c-.891-.68-2.572-1.739-4.12-1.506l.271-1.125s2.385-.746,3.226,0A5.283,5.283,0,0,1,384.98,481.884Z" transform="translate(-312.38 -381.35)" opacity="0.1"/>
      <path id="Caminho_167" data-name="Caminho 167" d="M269.43,421.746s5.4.372,6.89-.746a14.262,14.262,0,0,1-6.722,2.806Z" transform="translate(-227.002 -336.97)" opacity="0.1"/>
      <path id="Caminho_169" data-name="Caminho 169" d="M869.992,476.83s4.091,8.031.757,12.424.3,16.366.3,16.366" transform="translate(-686.657 -379.747)" fill="none" stroke="#6c63ff" stroke-miterlimit="10" stroke-width="1"/>
      <path id="Caminho_170" data-name="Caminho 170" d="M869.853,456.946a1.633,1.633,0,1,1-1.136-2.806A4.732,4.732,0,0,1,869.853,456.946Z" transform="translate(-685.307 -362.362)" fill="#6c63ff"/>
      <path id="Caminho_171" data-name="Caminho 171" d="M874.421,476.83s-4.091,8.031-.758,12.424-.3,16.366-.3,16.366" transform="translate(-688.966 -379.747)" fill="none" stroke="#6c63ff" stroke-miterlimit="10" stroke-width="1"/>
      <path id="Caminho_172" data-name="Caminho 172" d="M876,456.946a1.633,1.633,0,1,0,1.136-2.806A4.732,4.732,0,0,0,876,456.946Z" transform="translate(-691.758 -362.362)" fill="#6c63ff"/>
      <path id="Caminho_173" data-name="Caminho 173" d="M876,456.946a1.633,1.633,0,1,0,1.136-2.806A4.732,4.732,0,0,0,876,456.946Z" transform="translate(-691.758 -362.362)" opacity="0.1"/>
      <path id="Caminho_174" data-name="Caminho 174" d="M886.192,476.83s4.091,8.031.758,12.424.3,16.366.3,16.366" transform="translate(-699.07 -379.747)" fill="none" stroke="#6c63ff" stroke-miterlimit="10" stroke-width="1"/>
      <path id="Caminho_175" data-name="Caminho 175" d="M886.053,456.946a1.633,1.633,0,1,1-1.136-2.806A4.732,4.732,0,0,1,886.053,456.946Z" transform="translate(-697.719 -362.362)" fill="#6c63ff"/>
      <path id="Caminho_176" data-name="Caminho 176" d="M881.724,484.466a4.724,4.724,0,0,1-2.763,1.232,4.025,4.025,0,1,1,2.763-1.232Z" transform="translate(-694.026 -383.448)" fill="#6c63ff"/>
      <path id="Caminho_177" data-name="Caminho 177" d="M882.173,508.158a1.632,1.632,0,1,1-1.639-1.573,4.735,4.735,0,0,1,2.754-1.234A4.683,4.683,0,0,1,882.173,508.158Z" transform="translate(-694.371 -401.599)" fill="#6c63ff"/>
      <path id="Caminho_178" data-name="Caminho 178" d="M857.505,525.892a1.632,1.632,0,1,1-2.7-1.372A4.722,4.722,0,0,1,857.505,525.892Z" transform="translate(-675.522 -416.287)" fill="#6c63ff"/>
      <path id="Caminho_179" data-name="Caminho 179" d="M860.655,477.79a4.723,4.723,0,0,1,1.709,2.5,4.757,4.757,0,0,1-2.965-.594,4.705,4.705,0,0,1-1.709-2.5A4.687,4.687,0,0,1,860.655,477.79Z" transform="translate(-677.729 -379.998)" fill="#6c63ff"/>
      <path id="Caminho_180" data-name="Caminho 180" d="M860.655,477.79a4.723,4.723,0,0,1,1.709,2.5,4.757,4.757,0,0,1-2.965-.594,4.705,4.705,0,0,1-1.709-2.5A4.687,4.687,0,0,1,860.655,477.79Z" transform="translate(-677.729 -379.998)" opacity="0.1"/>
      <path id="Caminho_181" data-name="Caminho 181" d="M890.621,476.83s-4.091,8.031-.757,12.424-.3,16.366-.3,16.366" transform="translate(-701.378 -379.747)" fill="none" stroke="#6c63ff" stroke-miterlimit="10" stroke-width="1"/>
      <path id="Caminho_182" data-name="Caminho 182" d="M892.21,456.946a1.633,1.633,0,1,0,1.136-2.806A4.732,4.732,0,0,0,892.21,456.946Z" transform="translate(-704.178 -362.362)" fill="#6c63ff"/>
      <path id="Caminho_183" data-name="Caminho 183" d="M892.21,456.946a1.633,1.633,0,1,0,1.136-2.806A4.732,4.732,0,0,0,892.21,456.946Z" transform="translate(-704.178 -362.362)" opacity="0.1"/>
      <path id="Caminho_184" data-name="Caminho 184" d="M889.779,490.239a4.788,4.788,0,0,0-1.169,2.806,4.717,4.717,0,0,0,2.777-1.2,4.788,4.788,0,0,0,1.169-2.806A4.712,4.712,0,0,0,889.779,490.239Z" transform="translate(-701.42 -389.102)" fill="#6c63ff"/>
      <path id="Caminho_185" data-name="Caminho 185" d="M889.779,490.239a4.788,4.788,0,0,0-1.169,2.806,4.717,4.717,0,0,0,2.777-1.2,4.788,4.788,0,0,0,1.169-2.806A4.712,4.712,0,0,0,889.779,490.239Z" transform="translate(-701.42 -389.102)" opacity="0.1"/>
      <path id="Caminho_186" data-name="Caminho 186" d="M898.889,523.069a4.788,4.788,0,0,0-1.169,2.806,4.718,4.718,0,0,0,2.777-1.2,4.788,4.788,0,0,0,1.169-2.806A4.684,4.684,0,0,0,898.889,523.069Z" transform="translate(-708.4 -414.257)" fill="#6c63ff"/>
      <path id="Caminho_187" data-name="Caminho 187" d="M889.31,506.745s2.462-3.881,5.92-3.975" transform="translate(-701.956 -399.622)" fill="none" stroke="#6c63ff" stroke-miterlimit="10" stroke-width="1"/>
      <path id="Caminho_188" data-name="Caminho 188" d="M861.71,496.715s-2.462-3.881-5.92-3.975" transform="translate(-676.273 -391.937)" fill="none" stroke="#6c63ff" stroke-miterlimit="10" stroke-width="1"/>
      <path id="Caminho_189" data-name="Caminho 189" d="M879.74,520.415s2.462-3.881,5.92-3.975" transform="translate(-694.624 -410.096)" fill="none" stroke="#6c63ff" stroke-miterlimit="10" stroke-width="1"/>
      <circle id="Elipse_39" data-name="Elipse 39" cx="0.638" cy="0.638" r="0.638" transform="translate(192.521 102.489)" fill="#6c63ff"/>
      <circle id="Elipse_40" data-name="Elipse 40" cx="0.638" cy="0.638" r="0.638" transform="translate(178.937 100.197)" fill="#6c63ff"/>
      <path id="Caminho_190" data-name="Caminho 190" d="M868.09,525.885s-2.462-3.881-5.92-3.975" transform="translate(-681.162 -414.287)" fill="none" stroke="#6c63ff" stroke-miterlimit="10" stroke-width="1"/>
      <circle id="Elipse_41" data-name="Elipse 41" cx="0.638" cy="0.638" r="0.638" transform="translate(180.429 107.017)" fill="#6c63ff"/>
      <circle id="Elipse_42" data-name="Elipse 42" cx="0.638" cy="0.638" r="0.638" transform="translate(190.444 105.738)" fill="#6c63ff"/>
      <path id="Caminho_191" data-name="Caminho 191" d="M869.349,560.9s-5.934-1.188-7.517-2.77-8.7-4.344-9.495-2.373-10.682,8.711-3.963,9.9,15.826,1.583,17.8.79S869.349,560.9,869.349,560.9Z" transform="translate(-668.809 -439.7)" fill="#a8a8a8"/>
      <path id="Caminho_192" data-name="Caminho 192" d="M848.37,583.9c6.726,1.188,15.826,1.583,17.8.79,1.506-.6,2.553-3.507,2.967-4.844l.2.042s-1.188,4.748-3.166,5.539-11.077.4-17.8-.79c-1.941-.344-2.5-1.148-2.287-2.165C846.254,583.137,846.929,583.649,848.37,583.9Z" transform="translate(-668.804 -458.681)" opacity="0.2"/>
      <path id="Caminho_193" data-name="Caminho 193" d="M183.606,664.66s1.959,2.572-.9,6.429-5.225,7.133-4.269,9.548c0,0,4.321-7.185,7.837-7.285S187.473,668.981,183.606,664.66Z" transform="translate(-157.114 -523.663)" fill="#6c63ff"/>
      <path id="Caminho_194" data-name="Caminho 194" d="M183.969,664.66a3.172,3.172,0,0,1,.4.8c3.432,4.031,5.258,7.792,1.962,7.888-3.072.089-6.757,5.581-7.64,6.969a2.974,2.974,0,0,0,.105.316s4.321-7.185,7.837-7.285S187.836,668.981,183.969,664.66Z" transform="translate(-157.477 -523.663)" opacity="0.1"/>
      <path id="Caminho_195" data-name="Caminho 195" d="M215.318,676.742c0,.9-.1,1.637-.234,1.637s-.234-.732-.234-1.637.126-.468.25-.468S215.318,675.841,215.318,676.742Z" transform="translate(-185.183 -532.48)" fill="#ffd037"/>
      <path id="Caminho_196" data-name="Caminho 196" d="M217.128,681.207c-.793.433-1.482.7-1.541.582s.533-.549,1.326-.98.479-.117.54,0S217.92,680.774,217.128,681.207Z" transform="translate(-185.744 -535.868)" fill="#ffd037"/>
      <path id="Caminho_197" data-name="Caminho 197" d="M142.591,664.66s-1.959,2.572.9,6.429,5.225,7.133,4.269,9.546c0,0-4.321-7.185-7.837-7.285S138.724,668.981,142.591,664.66Z" transform="translate(-126.449 -523.663)" fill="#6c63ff"/>
      <path id="Caminho_198" data-name="Caminho 198" d="M142.591,664.66a3.172,3.172,0,0,0-.4.8c-3.432,4.031-5.258,7.792-1.962,7.888,3.072.089,6.757,5.581,7.64,6.969a2.98,2.98,0,0,1-.105.316s-4.321-7.185-7.837-7.285S138.724,668.981,142.591,664.66Z" transform="translate(-126.449 -523.663)" opacity="0.1"/>
      <path id="Caminho_199" data-name="Caminho 199" d="M141.42,676.742c0,.9.1,1.637.234,1.637s.234-.732.234-1.637-.126-.468-.25-.468S141.42,675.841,141.42,676.742Z" transform="translate(-128.92 -532.48)" fill="#ffd037"/>
      <path id="Caminho_200" data-name="Caminho 200" d="M134.5,681.207c.793.433,1.482.7,1.541.582s-.533-.549-1.326-.98-.479-.117-.54,0S133.7,680.774,134.5,681.207Z" transform="translate(-123.245 -535.868)" fill="#ffd037"/>
      <path id="Caminho_201" data-name="Caminho 201" d="M144.09,721.853s5.478-.168,7.128-1.344,8.417-2.572,8.835-.7,8.232,9.378,2.048,9.427-14.369-.963-16.017-1.966S144.09,721.853,144.09,721.853Z" transform="translate(-130.966 -565.217)" fill="#a8a8a8"/>
      <path id="Caminho_202" data-name="Caminho 202" d="M162.222,738.268c-6.184.049-14.369-.963-16.017-1.966-1.255-.764-1.756-3.507-1.922-4.772H144.1s.346,4.419,1.994,5.422,9.833,2.018,16.017,1.966c1.786-.014,2.4-.65,2.368-1.59C164.23,737.9,163.55,738.256,162.222,738.268Z" transform="translate(-130.974 -574.899)" opacity="0.2"/>
    </g>
  </g>
</svg>
