<svg xmlns="http://www.w3.org/2000/svg" xmlns:xlink="http://www.w3.org/1999/xlink" width="262" height="187" viewBox="0 0 262 187">
  <defs>
    <clipPath id="clip-Prancheta_1">
      <rect width="262" height="187"/>
    </clipPath>
  </defs>
  <g id="Prancheta_1" data-name="Prancheta – 1" clip-path="url(#clip-Prancheta_1)">
    <rect width="262" height="187" fill="#fff"/>
    <g id="undraw_fast_car_p4cu" transform="translate(2.704 2.709)">
      <path id="Caminho_203" data-name="Caminho 203" d="M128.816,88.48c-1.281,1.555-1.775,3.741-2.326,5.8-4.442,16.562-15.388,29.884-27.855,39.4-5.279,4.031-11.706,9.436-10.551,16.663.622,3.881,3.35,6.738,5.377,9.9a30.71,30.71,0,0,1,3.605,23.539c-2.305,9.015-8.749,17.427-6.754,26.543,1.23,5.611,5.405,9.6,9.42,13.036q9.394,8.026,19.386,15.038c4.466,3.133,9.216,6.182,14.421,6.579,4.582.351,9.071-1.391,13.422-3.11,3.8-1.5,7.7-3.067,10.769-6.079,2-1.966,3.6-4.5,5.826-6.111,5.228-3.778,11.942-1.384,17.937.234a62.453,62.453,0,0,0,42.743-3.914c20.647-9.7,36.383-30.078,56.579-41.01,8.683-4.7,18.129-7.619,26.169-13.675a48.884,48.884,0,0,0,11.5-12.447,53.844,53.844,0,0,0,8.417-33.038c-.949-11.7-6.268-22.982-14.622-29.589-8.943-7.072-20.237-8.393-30.412-12.639-10.5-4.391-19.849-11.933-30.251-16.635a61.879,61.879,0,0,0-53.378,1.195c-11.327,5.728-22.8,19.092-35.42,20.107C153.832,88.962,135.835,79.965,128.816,88.48Z" transform="matrix(-0.966, -0.259, 0.259, -0.966, 288.625, 298.79)" fill="#f4f6f5"/>
      <path id="Caminho_4" data-name="Caminho 4" d="M427.821,242.252H397.666v-6.522a1.56,1.56,0,0,0-1.56-1.56h-8.855v-6.947a.982.982,0,0,0-.982-.982H374.862a.982.982,0,0,0-.982.982v6.95H363.47a1.56,1.56,0,0,0-1.56,1.56v6.522H333.155a.317.317,0,0,0-.315.317v86.58a.317.317,0,0,0,.315.317h19.11a.317.317,0,0,0,.317-.317V317.5a.32.32,0,0,1,.317-.317h8.073a.32.32,0,0,1,.317.317v11.649a.317.317,0,0,0,.315.317h37.763a.32.32,0,0,0,.317-.317V317.5a.317.317,0,0,1,.315-.317h8.073a.317.317,0,0,1,.317.317v11.649a.32.32,0,0,0,.317.317h19.11a.32.32,0,0,0,.317-.317V242.569A.32.32,0,0,0,427.821,242.252Zm-78.66,70.888a.315.315,0,0,1-.315.315h-11.8a.315.315,0,0,1-.317-.315v-4.02a.317.317,0,0,1,.317-.317h11.811a.317.317,0,0,1,.315.317Zm0-10.417a.315.315,0,0,1-.315.317h-11.8a.315.315,0,0,1-.317-.317v-4.029a.315.315,0,0,1,.317-.317h11.811a.315.315,0,0,1,.315.317Zm0-10.415a.317.317,0,0,1-.315.317h-11.8a.317.317,0,0,1-.317-.317v-4.032a.317.317,0,0,1,.317-.317h11.811a.317.317,0,0,1,.315.317Zm0-10.417a.315.315,0,0,1-.315.317h-11.8a.315.315,0,0,1-.317-.317v-4.018a.315.315,0,0,1,.317-.317h11.811a.315.315,0,0,1,.315.317Zm0-10.415a.317.317,0,0,1-.315.317h-11.8a.317.317,0,0,1-.317-.317v-4.032a.315.315,0,0,1,.317-.315h11.811a.315.315,0,0,1,.315.315Zm0-10.415a.315.315,0,0,1-.315.315h-11.8a.315.315,0,0,1-.317-.315v-4.032a.317.317,0,0,1,.317-.317h11.811a.317.317,0,0,1,.315.317Zm0-10.417a.315.315,0,0,1-.315.317h-11.8a.315.315,0,0,1-.317-.317v-4.018a.315.315,0,0,1,.317-.317h11.811a.315.315,0,0,1,.315.317Zm27.984,62.5a.315.315,0,0,1-.317.315h-11.8a.317.317,0,0,1-.317-.315v-4.018a.32.32,0,0,1,.317-.317h11.8a.317.317,0,0,1,.317.317Zm0-10.417a.315.315,0,0,1-.317.317h-11.8a.317.317,0,0,1-.317-.317v-4.027a.317.317,0,0,1,.317-.317h11.8a.315.315,0,0,1,.317.317Zm0-10.415a.317.317,0,0,1-.317.317h-11.8a.32.32,0,0,1-.317-.317v-4.029a.32.32,0,0,1,.317-.317h11.8a.317.317,0,0,1,.317.317Zm0-10.417a.315.315,0,0,1-.317.317h-11.8a.317.317,0,0,1-.317-.317v-4.015a.317.317,0,0,1,.317-.317h11.8a.315.315,0,0,1,.317.317Zm0-10.415a.317.317,0,0,1-.317.317h-11.8a.32.32,0,0,1-.317-.317v-4.029a.317.317,0,0,1,.317-.315h11.8a.315.315,0,0,1,.317.315Zm0-10.415a.315.315,0,0,1-.317.315h-11.8a.317.317,0,0,1-.317-.315v-4.029a.32.32,0,0,1,.317-.317h11.8a.317.317,0,0,1,.317.317Zm0-10.417a.315.315,0,0,1-.317.317h-11.8a.317.317,0,0,1-.317-.317v-4.015a.317.317,0,0,1,.317-.317h11.8a.315.315,0,0,1,.317.317Zm19.122,62.5a.315.315,0,0,1-.317.315h-11.8a.317.317,0,0,1-.317-.315v-4.015a.32.32,0,0,1,.317-.317h11.8a.317.317,0,0,1,.317.317Zm0-10.417a.315.315,0,0,1-.317.317h-11.8a.317.317,0,0,1-.317-.317v-4.025a.317.317,0,0,1,.317-.317h11.8a.315.315,0,0,1,.317.317Zm0-10.415a.317.317,0,0,1-.317.317h-11.8a.32.32,0,0,1-.317-.317v-4.027a.32.32,0,0,1,.317-.317h11.8a.317.317,0,0,1,.317.317Zm0-10.418a.315.315,0,0,1-.317.317h-11.8a.317.317,0,0,1-.317-.317v-4.013a.317.317,0,0,1,.317-.317h11.8a.315.315,0,0,1,.317.317Zm0-10.415a.317.317,0,0,1-.317.317h-11.8a.32.32,0,0,1-.317-.317v-4.027a.317.317,0,0,1,.317-.315h11.8a.315.315,0,0,1,.317.315Zm0-10.415a.315.315,0,0,1-.317.315h-11.8a.317.317,0,0,1-.317-.315v-4.027a.32.32,0,0,1,.317-.317h11.8a.317.317,0,0,1,.317.317Zm0-10.417a.315.315,0,0,1-.317.317h-11.8a.317.317,0,0,1-.317-.317v-4.013a.317.317,0,0,1,.317-.317h11.8a.315.315,0,0,1,.317.317Zm27.984,62.5a.317.317,0,0,1-.317.315h-11.8a.315.315,0,0,1-.317-.315v-4.013a.317.317,0,0,1,.317-.317h11.8a.32.32,0,0,1,.317.317Zm0-10.418a.317.317,0,0,1-.317.317h-11.8a.315.315,0,0,1-.317-.317v-4.022a.315.315,0,0,1,.317-.317h11.8a.317.317,0,0,1,.317.317Zm0-10.415a.32.32,0,0,1-.317.317h-11.8a.317.317,0,0,1-.317-.317v-4.025a.317.317,0,0,1,.317-.317h11.8a.32.32,0,0,1,.317.317Zm0-10.418a.317.317,0,0,1-.317.317h-11.8a.315.315,0,0,1-.312-.31v-4.018a.315.315,0,0,1,.317-.317h11.8a.317.317,0,0,1,.317.317Zm0-10.415a.32.32,0,0,1-.317.317h-11.8a.317.317,0,0,1-.317-.317v-4.025a.315.315,0,0,1,.317-.315h11.8a.317.317,0,0,1,.317.315Zm0-10.415a.317.317,0,0,1-.317.315h-11.8a.315.315,0,0,1-.317-.315v-4.025a.317.317,0,0,1,.317-.317h11.8a.32.32,0,0,1,.317.317Zm0-10.417a.317.317,0,0,1-.317.317h-11.8a.315.315,0,0,1-.312-.31v-4.018a.315.315,0,0,1,.317-.317h11.8a.317.317,0,0,1,.317.317Z" transform="translate(-274.054 -195.793)" fill="#f2f2f2"/>
      <path id="Caminho_5" data-name="Caminho 5" d="M261.072,114.779l-3.646,2.312,2.213-4.027a3.606,3.606,0,0,0-2.2-.787h-.059a4.251,4.251,0,0,1-.757-.056l-1.236.782.529-.963a4.384,4.384,0,0,1-2.161-1.645l-2.211,1.41,1.4-2.54a6.467,6.467,0,0,0-4.955-2.5,6.792,6.792,0,0,0-5.672,3.5,4.229,4.229,0,0,1-3.759,2.021h-.122c-2.54,0-4.6,2.88-4.6,6.43s2.068,6.433,4.607,6.433a3.459,3.459,0,0,0,1.6-.4,6.628,6.628,0,0,1,5.566-.108,5.794,5.794,0,0,0,4.732,0,6.632,6.632,0,0,1,5.514.108,3.458,3.458,0,0,0,1.586.4c2.54,0,4.6-2.88,4.6-6.433A8.153,8.153,0,0,0,261.072,114.779Z" transform="translate(-198.306 -104.385)" fill="#f2f2f2"/>
      <path id="Caminho_6" data-name="Caminho 6" d="M254.23,151.478a6.788,6.788,0,0,0-3.94.428,5.8,5.8,0,0,1-4.729,0,6.644,6.644,0,0,0-5.566.108,3.433,3.433,0,0,1-1.6.4c-2.255,0-4.133-2.272-4.523-5.27A4.33,4.33,0,0,0,235,145.928a6.335,6.335,0,0,1,11.31-.038,4.342,4.342,0,0,0,3.747,2.058h.059C251.919,147.937,253.474,149.377,254.23,151.478Z" transform="translate(-198.337 -131.674)" opacity="0.03"/>
      <path id="Caminho_7" data-name="Caminho 7" d="M852.555,100.651l-1.823,1.154,1.1-2.009a1.8,1.8,0,0,0-1.1-.392h-.028a2.022,2.022,0,0,1-.378-.028l-.616.392.263-.47a2.208,2.208,0,0,1-1.078-.818l-1.1.7.7-1.266a3.221,3.221,0,0,0-2.469-1.269,3.365,3.365,0,0,0-2.819,1.746,2.115,2.115,0,0,1-1.88,1.008h-.061c-1.266,0-2.293,1.436-2.293,3.207s1.027,3.207,2.293,3.207a1.72,1.72,0,0,0,.8-.2,3.308,3.308,0,0,1,2.775-.054,2.9,2.9,0,0,0,2.361,0,3.315,3.315,0,0,1,2.751.054,1.713,1.713,0,0,0,.789.195c1.266,0,2.293-1.436,2.293-3.207A4.083,4.083,0,0,0,852.555,100.651Z" transform="translate(-661.279 -96.65)" fill="#f2f2f2"/>
      <path id="Caminho_8" data-name="Caminho 8" d="M849.127,118.938a3.412,3.412,0,0,0-1.967.214,2.885,2.885,0,0,1-1.175.249,2.916,2.916,0,0,1-1.175-.254,3.313,3.313,0,0,0-2.777.054,1.713,1.713,0,0,1-.8.2c-1.125,0-2.06-1.132-2.255-2.629a2.177,2.177,0,0,0,.564-.606,3.157,3.157,0,0,1,5.639-.019,2.166,2.166,0,0,0,1.88,1.027h.031A2.357,2.357,0,0,1,849.127,118.938Z" transform="translate(-661.279 -110.245)" opacity="0.03"/>
      <path id="Caminho_9" data-name="Caminho 9" d="M650.442,188.332l-2.138,1.356,1.3-2.349a2.115,2.115,0,0,0-1.292-.47h-.035a2.535,2.535,0,0,1-.444-.033l-.724.47.31-.566a2.584,2.584,0,0,1-1.269-.961l-1.3.822.82-1.49a3.794,3.794,0,0,0-2.906-1.471,3.986,3.986,0,0,0-3.327,2.053,2.481,2.481,0,0,1-2.2,1.175h-.073c-1.49,0-2.695,1.689-2.695,3.759s1.205,3.771,2.695,3.771a2.012,2.012,0,0,0,.94-.235,3.891,3.891,0,0,1,3.263-.063,3.411,3.411,0,0,0,2.775,0,3.9,3.9,0,0,1,3.235.063,2.039,2.039,0,0,0,.94.235c1.49,0,2.7-1.687,2.7-3.771a4.793,4.793,0,0,0-.573-2.3Z" transform="translate(-504.818 -163.202)" fill="#f2f2f2"/>
      <path id="Caminho_10" data-name="Caminho 10" d="M646.412,209.856a3.994,3.994,0,0,0-2.312.251,3.411,3.411,0,0,1-2.775,0,3.891,3.891,0,0,0-3.263.063,2.019,2.019,0,0,1-.94.235c-1.323,0-2.425-1.332-2.653-3.09a2.526,2.526,0,0,0,.66-.7,3.722,3.722,0,0,1,6.64-.023,2.542,2.542,0,0,0,2.2,1.208h.026A2.734,2.734,0,0,1,646.412,209.856Z" transform="translate(-504.818 -179.207)" opacity="0.03"/>
      <path id="Caminho_11" data-name="Caminho 11" d="M928.128,595.847c0,.4,0,.808-.026,1.208a28.555,28.555,0,0,1-.559,4.626c-1.544,7.544-6,13.408-11.6,15.14a11.581,11.581,0,0,1-3.44.524c-8.63,0-15.624-9.633-15.624-21.5s6.994-21.5,15.624-21.5c8.094,0,14.752,8.472,15.544,19.324C928.1,594.388,928.128,595.114,928.128,595.847Z" transform="translate(-705.576 -462.117)" fill="#36334a"/>
      <path id="Caminho_12" data-name="Caminho 12" d="M965.59,613.9a28.561,28.561,0,0,1-.559,4.626c-1.544,7.544-6,13.408-11.6,15.14-4.335-1.995-7.551-9.471-7.551-18.389,0-10.446,4.417-18.913,9.868-18.913,4.574,0,8.423,5.972,9.539,14.076C965.442,611.547,965.543,612.708,965.59,613.9Z" transform="translate(-743.063 -478.955)" opacity="0.1"/>
      <path id="Caminho_13" data-name="Caminho 13" d="M695.88,450.06s42.29-8.693,64.61-.7c0,0,3.289,1.645,0,4.464,0,0,3.111,3.289-2.321,4.464l-21.58,1.327-40.709-4.147Z" transform="translate(-551.8 -363.906)" fill="#3f3d56"/>
      <path id="Caminho_14" data-name="Caminho 14" d="M727.38,456.621s36.207-7.443,55.318-.6c0,0,2.819,1.41,0,3.823,0,0,2.662,2.819-1.988,3.823L762.234,464.8l-34.854-3.545Z" transform="translate(-575.899 -369.374)" opacity="0.1"/>
      <path id="Caminho_15" data-name="Caminho 15" d="M710.086,466.736l-2.819-5.639s1.236-5.7-8.81-7.382a6.473,6.473,0,0,0-12.175-.183c-1.443.125-2.979.294-4.624.517l-2.3,12.321-.287-.573s1.459-6.738-11.691-7.723a4.891,4.891,0,0,0,1.118-3.085c0-2.986-2.789-5.4-6.226-5.4s-6.226,2.418-6.226,5.4a4.934,4.934,0,0,0,1.306,3.308q-1.844.176-3.891.451L650.88,472.61l11.982,1.645,19.031-2.819-1.685-3.371,10.847,1.49Z" transform="translate(-517.372 -366.485)" fill="#6c63ff"/>
      <path id="Caminho_16" data-name="Caminho 16" d="M710.086,466.736l-2.819-5.639s1.236-5.7-8.81-7.382a6.473,6.473,0,0,0-12.175-.183c-1.443.125-2.979.294-4.624.517l-2.3,12.321-.287-.573s1.459-6.738-11.691-7.723a4.891,4.891,0,0,0,1.118-3.085c0-2.986-2.789-5.4-6.226-5.4s-6.226,2.418-6.226,5.4a4.934,4.934,0,0,0,1.306,3.308q-1.844.176-3.891.451L650.88,472.61l11.982,1.645,19.031-2.819-1.685-3.371,10.847,1.49Z" transform="translate(-517.372 -366.485)" opacity="0.2"/>
      <path id="Caminho_17" data-name="Caminho 17" d="M720.914,435.121s-1.88-10.544,6.813-10.779,5.874,15.271,5.874,15.271,6.578,1.41,7.048,3.994-22.79,3.289-22.79,3.289Z" transform="translate(-568.616 -347.35)" fill="#6c63ff"/>
      <path id="Caminho_18" data-name="Caminho 18" d="M531.23,627.4c0,12.452-9.257,22.555-20.675,22.555s-20.675-10.1-20.675-22.555,9.372-24.552,20.793-24.552S531.23,614.945,531.23,627.4Z" transform="translate(-394.198 -483.921)" fill="#36334a"/>
      <ellipse id="Elipse_1" data-name="Elipse 1" cx="16.446" cy="19.028" rx="16.446" ry="19.028" transform="translate(99.911 125.393)" opacity="0.1"/>
      <ellipse id="Elipse_2" data-name="Elipse 2" cx="20.675" cy="22.555" rx="20.675" ry="22.555" transform="translate(4.758 118.81)" fill="#36334a"/>
      <path id="Caminho_19" data-name="Caminho 19" d="M310.989,469.35s-9.633.47-9.163,5.639,8.223,1.41,8.223,1.41Z" transform="translate(-250.314 -381.786)" fill="#36334a"/>
      <path id="Caminho_20" data-name="Caminho 20" d="M397.308,406.56l3.966-26.467s.94-3.289-11.747-3.289c0,0-40.646-2.584-50.983,1.645,0,0-11.982,4.464-28.663,27.489C309.88,405.938,395.663,407.97,397.308,406.56Z" transform="translate(-256.489 -310.385)" fill="#3f3d56"/>
      <path id="Caminho_21" data-name="Caminho 21" d="M409.922,388.35l-7.283,28.9-4.567-.11-21.615-.526-48.208-1.175c-.134-2.284,22.7-25.912,22.7-25.912Z" transform="translate(-270.541 -319.816)" fill="#36334a"/>
      <path id="Caminho_22" data-name="Caminho 22" d="M533.47,448.735l1.969-7.612s-1.88-10.547,6.813-10.782,5.874,15.271,5.874,15.271,5.991,1.285,6.945,3.649Z" transform="translate(-427.547 -351.94)" fill="#6c63ff" opacity="0.2"/>
      <path id="Caminho_23" data-name="Caminho 23" d="M305.3,530.7c-1.41-13.627-10.22-16.564-10.22-16.564-8.458-.47-14.1,31.718-14.1,31.718l-65.08,5.874s2.232-27.371-13.509-31.835-19.853,27.606-20.558,32.07-94.918-.47-97.5-2.349-1.645-19.97-.94-21.38,2.584-7.753,2.584-7.753A13.017,13.017,0,0,1,87.3,515.73c.423-.94.789-1.59.789-1.59,2.042-11.578,12.642-14.381,13.354-14.567h.038c2.819-2.819,28.9-4.7,28.9-4.7l9.868-1.88,80.227,1.576,3.414.068,40.787-1.962,27.583-1.327c6.344,0,9.633,15.976,9.633,15.976C307.767,521.423,305.3,530.7,305.3,530.7Z" transform="translate(-82.63 -398.617)" fill="#3f3d56"/>
      <ellipse id="Elipse_3" data-name="Elipse 3" cx="12.095" cy="7.572" rx="12.095" ry="7.572" transform="translate(73.532 108.716) rotate(-21.92)" opacity="0.1"/>
      <ellipse id="Elipse_4" data-name="Elipse 4" cx="12.095" cy="7.572" rx="12.095" ry="7.572" transform="translate(73.062 107.775) rotate(-21.92)" fill="#f2f2f2"/>
      <path id="Caminho_24" data-name="Caminho 24" d="M118.664,528.39a18.808,18.808,0,0,1-3.362,8.987c-3.353,5.056-7.951,8.033-10.782,7.161.423-.94.789-1.591.789-1.591C107.351,531.369,117.952,528.566,118.664,528.39Z" transform="translate(-99.377 -426.955)" opacity="0.1"/>
      <path id="Caminho_25" data-name="Caminho 25" d="M115.664,526.39a18.808,18.808,0,0,1-3.362,8.987c-3.353,5.056-7.951,8.033-10.782,7.161.423-.94.789-1.591.789-1.591C104.351,529.369,114.952,526.566,115.664,526.39Z" transform="translate(-97.082 -425.425)" fill="#f2f2f2"/>
      <path id="Caminho_26" data-name="Caminho 26" d="M155.75,451.274H137.19l-.94-2.584H158.8Z" transform="translate(-104.239 -343.272)" fill="#36334a"/>
      <rect id="Retângulo_17" data-name="Retângulo 17" width="30.543" height="8.928" transform="translate(16.74 127.033)" fill="#36334a"/>
      <circle id="Elipse_5" data-name="Elipse 5" cx="4.229" cy="4.229" r="4.229" transform="translate(75.946 136.196)" opacity="0.1"/>
      <circle id="Elipse_6" data-name="Elipse 6" cx="4.229" cy="4.229" r="4.229" transform="translate(75.476 135.491)" fill="#f2f2f2"/>
      <ellipse id="Elipse_7" data-name="Elipse 7" cx="2.115" cy="4.464" rx="2.115" ry="4.464" transform="translate(1.233 132.671)" opacity="0.1"/>
      <ellipse id="Elipse_8" data-name="Elipse 8" cx="2.115" cy="4.464" rx="2.115" ry="4.464" transform="translate(0.529 132.436)" fill="#f2f2f2"/>
      <path id="Caminho_27" data-name="Caminho 27" d="M720.458,521.047c-2.584,7.988-2.819,20.44-2.819,20.44l-.94,3.289-45.814,5.169s.235-23.025.94-33.832a43.869,43.869,0,0,0-2.474-17.219l3.414.068L713.55,497C720.364,501.776,722.777,513.874,720.458,521.047Z" transform="translate(-531.503 -402.94)" fill="#36334a"/>
      <path id="Caminho_28" data-name="Caminho 28" d="M838.913,535.984a1.153,1.153,0,0,0-1.062,1.337.825.825,0,0,0,.47.613c.759.378,5.81-.47,7.725-.808a1.3,1.3,0,0,0,1.085-1.158c.023-.334-.1-.618-.587-.618Z" transform="translate(-660.404 -432.279)" fill="#f2f2f2"/>
      <path id="Caminho_29" data-name="Caminho 29" d="M668.88,482.224s1.175,5.169,6.813,3.524l1.88-7.283-3.759-2.115Z" transform="translate(-531.143 -387.141)" fill="#36334a"/>
      <path id="Caminho_30" data-name="Caminho 30" d="M690.683,451.383c2.584-1.532,6.684-2.871,10.739.345a4.793,4.793,0,0,1,1.384,5.766c-1.327,2.873-4.478,5.991-11.834,2.258a4.746,4.746,0,0,1-1.79-1.584l-.038-.056a4.769,4.769,0,0,1,1.539-6.729Z" transform="translate(-546.041 -366.795)" fill="#36334a"/>
      <circle id="Elipse_9" data-name="Elipse 9" cx="4.699" cy="4.699" r="4.699" transform="translate(111.775 138.662)" fill="#f2f2f2"/>
      <ellipse id="Elipse_10" data-name="Elipse 10" cx="2.584" cy="4.699" rx="2.584" ry="4.699" transform="translate(210.922 130.204)" fill="#f2f2f2"/>
      <rect id="Retângulo_18" data-name="Retângulo 18" width="6.109" height="8.223" rx="3.054" transform="translate(113.302 128.912)" fill="#36334a"/>
      <path id="Caminho_31" data-name="Caminho 31" d="M899.569,510.19h0a1.645,1.645,0,0,1,1.645,1.645v3.759a2.819,2.819,0,0,1-2.819,2.819h0a1.645,1.645,0,0,1-1.645-1.645v-3.759A2.819,2.819,0,0,1,899.569,510.19Z" transform="translate(-686.063 -390.323)" fill="#36334a"/>
      <path id="Caminho_32" data-name="Caminho 32" d="M982.2,708.073h0a2.819,2.819,0,0,1-2.819-2.819v-2.584a2.819,2.819,0,0,1,2.819-2.819h0c1.551,0,1.41,1.269,1.41,2.819v2.584C983.607,706.8,983.755,708.073,982.2,708.073Z" transform="translate(-768.693 -558.131)" fill="#36334a"/>
      <path id="Caminho_33" data-name="Caminho 33" d="M872.63,556.19h0a2.819,2.819,0,0,1,2.819,2.819v3.524a1.88,1.88,0,0,1-1.88,1.88h0a2.819,2.819,0,0,1-2.819-2.819V558.07A1.88,1.88,0,0,1,872.63,556.19Z" transform="translate(-666.171 -425.516)" fill="#36334a"/>
      <path id="Caminho_34" data-name="Caminho 34" d="M1017.264,658.2c0,.4,0,.808-.026,1.208a28.558,28.558,0,0,1-.559,4.626,2.866,2.866,0,0,1-.47.04,2.819,2.819,0,0,1-2.819-2.819v-2.584a2.819,2.819,0,0,1,2.819-2.819,2.757,2.757,0,0,1,.728.1c.085.023.169.049.249.08C1017.238,656.74,1017.264,657.466,1017.264,658.2Z" transform="translate(-794.712 -524.468)" fill="#36334a"/>
      <rect id="Retângulo_19" data-name="Retângulo 19" width="6.109" height="8.223" rx="3.054" transform="translate(125.167 138.897)" fill="#36334a"/>
      <rect id="Retângulo_20" data-name="Retângulo 20" width="6.109" height="8.223" rx="3.054" transform="translate(102.143 138.897)" fill="#36334a"/>
      <rect id="Retângulo_21" data-name="Retângulo 21" width="6.109" height="8.223" rx="3.054" transform="translate(113.42 151.115)" fill="#36334a"/>
      <path id="Caminho_35" data-name="Caminho 35" d="M902.217,289.983a3.859,3.859,0,0,1-.235,1.313,3.9,3.9,0,0,1-7.3.1,3.837,3.837,0,0,1-.268-1.41,3.9,3.9,0,1,1,7.8,0Z" transform="translate(-703.686 -241.582)" fill="#ff6584"/>
      <path id="Caminho_36" data-name="Caminho 36" d="M894.162,287.995a3.9,3.9,0,0,1,1.518-5.3,3.86,3.86,0,0,1,1.41-.47,3.9,3.9,0,1,0,.329,7.77A3.9,3.9,0,0,1,894.162,287.995Z" transform="translate(-702.647 -238.621)" fill="#ff6584"/>
      <rect id="Retângulo_22" data-name="Retângulo 22" width="10.448" height="16.298" transform="translate(189.756 53.833)" fill="#ff6584"/>
      <rect id="Retângulo_23" data-name="Retângulo 23" width="10.448" height="16.298" transform="translate(189.991 53.363)" opacity="0.1"/>
      <path id="Caminho_37" data-name="Caminho 37" d="M794.172,577.46s-1.114,3.054-3.759,3.482a18.4,18.4,0,0,0-4.173,1.109l6.268,4.039,3.343-.418s.416-4.318,1.809-5.293S794.172,577.46,794.172,577.46Z" transform="translate(-620.93 -464.496)" fill="#fbbebe"/>
      <path id="Caminho_38" data-name="Caminho 38" d="M1000.559,577.46s1.114,3.054,3.759,3.482a18.242,18.242,0,0,1,4.177,1.116l-6.268,4.039-3.343-.418s-.416-4.318-1.809-5.293S1000.559,577.46,1000.559,577.46Z" transform="translate(-782.039 -464.496)" fill="#fbbebe"/>
      <path id="Caminho_39" data-name="Caminho 39" d="M825.271,462.44a4.866,4.866,0,0,0-2.23,2.507,9.725,9.725,0,0,0-4.736,3.623s-2.089,2.227-2.368,3.343-3.482,7.81-3.482,7.81-3.2,10.446-4.875,11.562c0,0,5.293-1.116,6.268,4.177,0,0,1.255,0,2.648-4.875a62.924,62.924,0,0,1,4.734-10.864s1.116-4.18,2.091-4.875,2.507-3.9,3.9-3.066,10.587-.139,10.587-.139,5.432,2.507,5.571,4.18,1.116,1.809,1.255,3.2,5.293,12.4,5.293,12.4.975,3.054,1.252,3.759c0,0,3.066-7.382,7.1-3.2a9.557,9.557,0,0,0-1.393-4.464c-1.255-1.678-6.687-14.766-6.687-14.766a8.568,8.568,0,0,0-1.114-2.507c-.557-.557-4.875-5.014-6.4-5.014,0,0-.836-2.091-1.811-2.368Z" transform="translate(-637.256 -376.499)" fill="#696880"/>
      <path id="Caminho_40" data-name="Caminho 40" d="M785.8,597.747a6.788,6.788,0,0,1-6.633-.893,13.222,13.222,0,0,0-2.958-1.713c-1.475-.6-3.245-1.041-3.783-.04-.975,1.809,11.841,6.268,11.841,6.268A3.857,3.857,0,0,0,785.8,597.747Z" transform="translate(-610.322 -477.539)" fill="#696880"/>
      <path id="Caminho_41" data-name="Caminho 41" d="M1003.2,597.747a6.788,6.788,0,0,0,6.633-.893,13.219,13.219,0,0,1,2.958-1.713c1.475-.6,3.245-1.041,3.783-.04.975,1.809-11.841,6.268-11.841,6.268A3.857,3.857,0,0,1,1003.2,597.747Z" transform="translate(-786.913 -477.539)" fill="#696880"/>
      <path id="Caminho_42" data-name="Caminho 42" d="M889.531,360.007a1.653,1.653,0,0,1-.625,1.266,3.444,3.444,0,0,1-1.156.275,2.688,2.688,0,0,0-1.84,1.588,4.116,4.116,0,0,0-.174,2.479,9.108,9.108,0,0,0,.355,1.191,11.276,11.276,0,0,0,1.666,3.263,13.86,13.86,0,0,0,2.185,2.058,3.771,3.771,0,0,0,2.89,1.175,2.809,2.809,0,0,0,1.548-.221c.7-.406.916-1.306,1.3-2.025.327-.613.811-1.13,1.114-1.755a7,7,0,0,0,.47-1.53l.651-2.892a4.087,4.087,0,0,0-.141-3.132.494.494,0,0,0-.174-.181.646.646,0,0,0-.355-.038,3.834,3.834,0,0,1-2.15-.491.851.851,0,0,1-.27-.211,1.065,1.065,0,0,1-.167-.5,5.239,5.239,0,0,0-.3-1.048.7.7,0,0,0-.2-.312.73.73,0,0,0-.329-.11,26.891,26.891,0,0,0-3.038-.32c-.336-.014-.839-.148-1.067.146S889.569,359.655,889.531,360.007Z" transform="translate(-696.963 -296.979)" fill="#fbbebe"/>
      <path id="Caminho_43" data-name="Caminho 43" d="M889.531,360.007a1.653,1.653,0,0,1-.625,1.266,3.444,3.444,0,0,1-1.156.275,2.688,2.688,0,0,0-1.84,1.588,4.116,4.116,0,0,0-.174,2.479,9.108,9.108,0,0,0,.355,1.191,11.276,11.276,0,0,0,1.666,3.263,13.86,13.86,0,0,0,2.185,2.058,3.771,3.771,0,0,0,2.89,1.175,2.809,2.809,0,0,0,1.548-.221c.7-.406.916-1.306,1.3-2.025.327-.613.811-1.13,1.114-1.755a7,7,0,0,0,.47-1.53l.651-2.892a4.087,4.087,0,0,0-.141-3.132.494.494,0,0,0-.174-.181.646.646,0,0,0-.355-.038,3.834,3.834,0,0,1-2.15-.491.851.851,0,0,1-.27-.211,1.065,1.065,0,0,1-.167-.5,5.239,5.239,0,0,0-.3-1.048.7.7,0,0,0-.2-.312.73.73,0,0,0-.329-.11,26.891,26.891,0,0,0-3.038-.32c-.336-.014-.839-.148-1.067.146S889.569,359.655,889.531,360.007Z" transform="translate(-696.963 -296.979)" opacity="0.1"/>
      <path id="Caminho_44" data-name="Caminho 44" d="M875.216,369.994a6.445,6.445,0,0,0-1.678-.266,4.2,4.2,0,0,0-3.557,1.53,3.611,3.611,0,0,0-.538,2.69,5.57,5.57,0,0,0,1.222,2.507,7.533,7.533,0,0,1,.94,1.231,6.525,6.525,0,0,1,.47,2.349c.235,1.905,1.048,3.7,1.372,5.594s.042,4.093-1.454,5.3c-.251.2-.554.413-.576.735-.035.515.634.735,1.149.782a13.1,13.1,0,0,0,4.612-.106c.62-.164,1.215-.421,1.844-.538,1.6-.3,3.207.312,4.8.608a21.566,21.566,0,0,0,3.5.284,1.879,1.879,0,0,0,.808-.106.646.646,0,0,0,.409-.644,1.089,1.089,0,0,0-.277-.47,7.662,7.662,0,0,1-1.276-3.592l-.728-4.264c-.4-2.274-.766-4.744.31-6.788.775-1.468,2.2-2.5,3.017-3.947a1.916,1.916,0,0,0-1.078-3.033,5.453,5.453,0,0,0-4.086-.148,16.509,16.509,0,0,1-.4,3.054l-.284,1.645a20.953,20.953,0,0,1-.634,2.866,3.107,3.107,0,0,1-.51,1.038,2.684,2.684,0,0,1-.9.655,5.348,5.348,0,0,1-2.385.543,3.13,3.13,0,0,1-1.053-.16,4.494,4.494,0,0,1-1.45-1.022,2.367,2.367,0,0,1-.383-.414,2.489,2.489,0,0,1-.261-.627,12.757,12.757,0,0,1-.446-1.757c-.073-.456-.094-.919-.127-1.379A33.522,33.522,0,0,0,875.216,369.994Z" transform="translate(-684.534 -305.302)" fill="#f2f2f2"/>
      <path id="Caminho_45" data-name="Caminho 45" d="M888.1,486.75s-.557,7.382,2.925,8.637.418-6.13.418-6.13l-1.114-2.23Z" transform="translate(-698.836 -395.098)" fill="#fbbebe"/>
      <path id="Caminho_46" data-name="Caminho 46" d="M923.667,486.75s.557,7.382-2.925,8.637-.418-6.13-.418-6.13l1.114-2.23Z" transform="translate(-722.558 -395.098)" fill="#fbbebe"/>
      <path id="Caminho_47" data-name="Caminho 47" d="M871.544,380.426l-1.114,1.811s.975,6.268,1.114,7.382a14.53,14.53,0,0,0,.557,2.364s.139,3.343.139,4.6a14.03,14.03,0,0,0,.7,3.343,15.159,15.159,0,0,0,.7,3.482c.557,1.534,1.116,3.343,1.116,3.343s.7-1.95,3.482.975a1.689,1.689,0,0,0,0-2.368,36.852,36.852,0,0,1-.836-5.709c0-1.95-1.532-11.277-1.532-11.277S874.887,377.778,871.544,380.426Z" transform="translate(-685.34 -313.429)" opacity="0.1"/>
      <path id="Caminho_48" data-name="Caminho 48" d="M870.374,379.847l-1.114,1.809s.975,6.268,1.114,7.384a14.629,14.629,0,0,0,.559,2.366s.146,3.343.146,4.6a13.971,13.971,0,0,0,.7,3.343,15.233,15.233,0,0,0,.7,3.482c.557,1.532,1.114,3.343,1.114,3.343s.7-1.95,3.482.975a1.687,1.687,0,0,0,0-2.368,36.848,36.848,0,0,1-.836-5.712c0-1.952-1.532-11.277-1.532-11.277S873.712,377.21,870.374,379.847Z" transform="translate(-684.445 -312.988)" fill="#f2f2f2"/>
      <path id="Caminho_49" data-name="Caminho 49" d="M928.38,374.506l.7.829a25.594,25.594,0,0,1-.989,10.732l-.557,5.434s-.975,4.6-1.116,5.712-.139,1.252-.416,1.67a.536.536,0,0,0,0,.7l-.836,3.066s-1.255-1.532-3.759.418a2.211,2.211,0,0,1-.139-2.091c.566-.975.557-1.393.418-1.67s.557-1.673.557-1.95.975-6.687.975-6.687.418-6.268.836-8.357a39.091,39.091,0,0,0,.207-6.167,2.361,2.361,0,0,1,3.994-1.76A1.092,1.092,0,0,1,928.38,374.506Z" transform="translate(-724.069 -308.625)" opacity="0.1"/>
      <path id="Caminho_50" data-name="Caminho 50" d="M930.14,372.3l.7.829a25.641,25.641,0,0,1-.989,10.732L929.3,389.3s-.975,4.6-1.116,5.712-.139,1.255-.418,1.67a.543.543,0,0,0,0,.7l-.834,3.054s-1.255-1.532-3.759.418a2.206,2.206,0,0,1-.139-2.089c.566-.975.557-1.393.416-1.673s.559-1.67.559-1.95.975-6.687.975-6.687.418-6.268.834-8.357.141-8.357.141-8.357A3.222,3.222,0,0,1,930.14,372.3Z" transform="translate(-725.416 -306.7)" fill="#f2f2f2"/>
      <circle id="Elipse_11" data-name="Elipse 11" cx="5.573" cy="5.573" r="5.573" transform="translate(189.824 52.508)" fill="#fbbebe"/>
      <path id="Caminho_51" data-name="Caminho 51" d="M902.884,307.237a3.9,3.9,0,0,1-7.3.1,6.913,6.913,0,0,1,4.4-.094A3.942,3.942,0,0,1,902.884,307.237Z" transform="translate(-704.581 -257.523)" opacity="0.1"/>
      <path id="Caminho_52" data-name="Caminho 52" d="M886.623,308.438s-10.725-3.759-8.08,14.487c0,0,2.368,1.532,4.18.557,0,0-1.255-12.687,3.621-12.118s4.041,11.839,4.041,11.839,2.786.836,3.621-.7S893.728,305.928,886.623,308.438Z" transform="translate(-691.226 -258.434)" fill="#ff6584"/>
      <path id="Caminho_53" data-name="Caminho 53" d="M900.86,318.312c-3.346-.383-3.8,5.465-3.759,9.175.042-3.686.663-8.693,3.759-8.338,3.482.4,4.05,6.261,4.093,9.583C904.99,325.684,904.657,318.746,900.86,318.312Z" transform="translate(-705.742 -266.22)" opacity="0.1"/>
      <path id="Caminho_54" data-name="Caminho 54" d="M878.554,351.835a37.887,37.887,0,0,1-.416-4.835,35.769,35.769,0,0,0,.416,5.662s2.368,1.532,4.18.557c0,0-.031-.3-.063-.806C880.868,353.344,878.554,351.835,878.554,351.835Z" transform="translate(-691.236 -288.181)" opacity="0.1"/>
      <path id="Caminho_55" data-name="Caminho 55" d="M933.931,360.674c-.778,1.426-3.247.8-3.583.7-.017.517-.038.825-.038.825s2.786.836,3.62-.7a6.354,6.354,0,0,0,.235-2.4A4.347,4.347,0,0,1,933.931,360.674Z" transform="translate(-731.151 -297.439)" opacity="0.1"/>
      <path id="Caminho_56" data-name="Caminho 56" d="M1058.277,664.091c.644-1.191-.087-2.653-.926-3.714s-1.863-2.169-1.842-3.524c.033-1.945,2.1-3.094,3.759-4.126a18.309,18.309,0,0,0,3.367-2.707,4.979,4.979,0,0,0,1.034-1.384,5.646,5.646,0,0,0,.31-2.462q-.106-4.166-.411-8.324" transform="translate(-826.935 -510.697)" fill="none" stroke="#3f3d56" stroke-miterlimit="10" stroke-width="4"/>
      <path id="Caminho_57" data-name="Caminho 57" d="M1083.351,627.782a3.031,3.031,0,0,0-1.516-2.488l-.679,1.344.021-1.628a3.075,3.075,0,0,0-1-.12,3.036,3.036,0,1,0,3.174,2.892Z" transform="translate(-843.594 -500.78)" fill="#6c63ff"/>
      <path id="Caminho_58" data-name="Caminho 58" d="M1061.4,710.257a3.035,3.035,0,0,1-5.73-1.245,2.993,2.993,0,0,1,.2-1.233,3.038,3.038,0,0,1,5.681.033l-1.9,1.544,2.084-.484A3,3,0,0,1,1061.4,710.257Z" transform="translate(-827.053 -562.709)" fill="#6c63ff"/>
      <path id="Caminho_59" data-name="Caminho 59" d="M1063.343,679.806a3.036,3.036,0,0,1-3.174-2.892,3,3,0,0,1,.263-1.382,3.054,3.054,0,0,1,1.948-1.682l-.014,1.252.686-1.363h0a3.036,3.036,0,0,1,3.172,2.892,2.977,2.977,0,0,1-.129,1.036A3.035,3.035,0,0,1,1063.343,679.806Z" transform="translate(-830.497 -538.152)" fill="#6c63ff"/>
      <path id="Caminho_60" data-name="Caminho 60" d="M1094.711,658.935a3.035,3.035,0,0,1-3.174-2.892,2.983,2.983,0,0,1,.286-1.438,3.033,3.033,0,0,1,4.229-1.351l-.536,1.468,1.1-1.06a3.034,3.034,0,0,1,.982,2.1,2.98,2.98,0,0,1-.078.836,3.035,3.035,0,0,1-2.812,2.34Z" transform="translate(-854.496 -522.185)" fill="#6c63ff"/>
      <path id="Caminho_61" data-name="Caminho 61" d="M1082.946,634c-.7.078-1.384.294-2.086.338a2.26,2.26,0,0,1-1.92-.672,9.428,9.428,0,0,1-.562-.987,2.182,2.182,0,0,0-.764-.721,3,3,0,0,0-.327,1.515,3.036,3.036,0,0,0,6,.5C1083.173,633.981,1083.058,633.99,1082.946,634Z" transform="translate(-843.595 -506.191)" opacity="0.1"/>
      <path id="Caminho_62" data-name="Caminho 62" d="M1094.711,664.6a3.035,3.035,0,0,1-3.174-2.892,2.983,2.983,0,0,1,.286-1.438,2.257,2.257,0,0,1,.611.611,9.342,9.342,0,0,0,.6,1,2.485,2.485,0,0,0,2.013.7c.733-.033,1.438-.235,2.169-.308.1,0,.2-.016.305-.019a3.035,3.035,0,0,1-2.812,2.338Z" transform="translate(-854.496 -527.85)" opacity="0.1"/>
      <path id="Caminho_63" data-name="Caminho 63" d="M1063.343,685.654a3.036,3.036,0,0,1-3.174-2.892,3,3,0,0,1,.263-1.382,2.5,2.5,0,0,1,.634.616,12,12,0,0,0,.658,1.024,2.817,2.817,0,0,0,2.15.754c.775-.016,1.475-.2,2.223-.258A3.035,3.035,0,0,1,1063.343,685.654Z" transform="translate(-830.497 -544)" opacity="0.1"/>
      <path id="Caminho_64" data-name="Caminho 64" d="M1061.4,716.589a3.035,3.035,0,0,1-5.73-1.245,2.994,2.994,0,0,1,.2-1.233,3.056,3.056,0,0,1,.665.594,10.387,10.387,0,0,0,.813,1.078,3.8,3.8,0,0,0,2.514.886A13.389,13.389,0,0,0,1061.4,716.589Z" transform="translate(-827.053 -569.041)" opacity="0.1"/>
      <path id="Caminho_65" data-name="Caminho 65" d="M1047.81,739.487a8.773,8.773,0,0,0,3.118-.587c.724-.515,3.684-1.128,3.865-.3s3.6,4.1.9,4.123-6.285-.42-7.006-.86S1047.81,739.487,1047.81,739.487Z" transform="translate(-821.045 -587.465)" fill="#656380"/>
      <path id="Caminho_66" data-name="Caminho 66" d="M1055.735,746.639c-2.7.021-6.285-.423-7.006-.86-.547-.336-.766-1.534-.839-2.089h-.08s.15,1.934.872,2.373,4.3.881,7.006.86c.78,0,1.05-.284,1.036-.7C1056.616,746.479,1056.313,746.634,1055.735,746.639Z" transform="translate(-821.045 -591.671)" opacity="0.2"/>
    </g>
  </g>
</svg>
