<svg xmlns="http://www.w3.org/2000/svg" width="73.25" height="73.244" viewBox="0 0 73.25 73.244">
  <path id="Caminho_245" data-name="Caminho 245" d="M72.386,33.109,42.142,2.865a6.4,6.4,0,0,0-9.027,0L2.87,33.109a6.381,6.381,0,0,0,0,9.027L33.114,72.381a6.391,6.391,0,0,0,9.027,0L72.386,42.133A6.4,6.4,0,0,0,72.386,33.109ZM53.3,39.979l-7.635,7.635a3.329,3.329,0,0,1-4.708-4.708l1.951-1.951H30.97v3.33a3.33,3.33,0,0,1-6.66,0v-6.66a3.331,3.331,0,0,1,3.33-3.33H42.911l-1.951-1.951a3.329,3.329,0,0,1,4.708-4.708L53.3,35.27A3.326,3.326,0,0,1,53.3,39.979Z" transform="translate(-0.999 -1.001)" fill="#fff"/>
</svg>
